<svg xmlns="http://www.w3.org/2000/svg" xmlns:xlink="http://www.w3.org/1999/xlink" width="500" zoomAndPan="magnify" viewBox="0 0 375 374.999991" height="500" preserveAspectRatio="xMidYMid meet" version="1.0"><path stroke-linecap="butt" transform="matrix(1.995741, 1.031178, -1.032831, 1.99894, 228.831318, 122.236895)" fill="none" stroke-linejoin="miter" d="M 0.000565207 0.000401837 L 13.022008 -0.000423073 " stroke="rgb(100%, 100%, 100%)" stroke-width="1" stroke-opacity="1" stroke-miterlimit="4"/><path stroke-linecap="butt" transform="matrix(2.048836, -0.9144, 0.86945, 1.948119, 217.283018, 152.669169)" fill="none" stroke-linejoin="miter" d="M -0.000501633 -0.000851651 L 18.386365 -0.000621672 " stroke="rgb(100%, 100%, 100%)" stroke-width="1" stroke-opacity="1" stroke-miterlimit="4"/><path stroke-linecap="butt" transform="matrix(-2.23097, 0.200928, -0.201825, -2.24093, 229.938988, 122.798817)" fill="none" stroke-linejoin="miter" d="M 0.000583763 0.000918829 L 7.0358 0.000699027 " stroke="rgb(100%, 100%, 100%)" stroke-width="1" stroke-opacity="1" stroke-miterlimit="4"/><path stroke-linecap="butt" transform="matrix(2.248405, -0.119887, 0.11359, 2.130307, 219.604838, 137.701733)" fill="none" stroke-linejoin="miter" d="M 0.000246792 0.000667148 L 14.659952 0.000524145 " stroke="rgb(100%, 100%, 100%)" stroke-width="1" stroke-opacity="1" stroke-miterlimit="4"/><path stroke-linecap="butt" transform="matrix(1.377024, -1.794893, 1.785163, 1.369559, 174.968007, 159.407582)" fill="none" stroke-linejoin="miter" d="M 0.000667005 -0.0000980821 L 16.249191 0.000121736 " stroke="rgb(100%, 100%, 100%)" stroke-width="1" stroke-opacity="1" stroke-miterlimit="4"/><path stroke-linecap="butt" transform="matrix(2.005455, -1.023738, 0.969948, 1.900082, 119.508577, 188.785065)" fill="none" stroke-linejoin="miter" d="M -0.000320971 -0.000125017 L 49.969037 -0.000496382 " stroke="rgb(100%, 100%, 100%)" stroke-width="1" stroke-opacity="1" stroke-miterlimit="4"/><path stroke-linecap="butt" transform="matrix(-0.609022, 2.136754, -2.163824, -0.616738, 218.235005, 151.210228)" fill="none" stroke-linejoin="miter" d="M 0.000384563 0.000182714 L 12.489995 -0.000268777 " stroke="rgb(100%, 100%, 100%)" stroke-width="1" stroke-opacity="1" stroke-miterlimit="4"/><path stroke-linecap="butt" transform="matrix(1.700246, -1.494613, 1.485514, 1.689896, 167.079354, 215.844552)" fill="none" stroke-linejoin="miter" d="M -0.000173626 -0.000628281 L 25.513221 -0.000730106 " stroke="rgb(100%, 100%, 100%)" stroke-width="1" stroke-opacity="1" stroke-miterlimit="4"/><path stroke-linecap="butt" transform="matrix(1.957003, -1.129876, 1.066667, 1.847521, 148.862618, 191.747611)" fill="none" stroke-linejoin="miter" d="M 0.000589837 -0.000460301 L 34.849441 -0.000526653 " stroke="rgb(100%, 100%, 100%)" stroke-width="1" stroke-opacity="1" stroke-miterlimit="4"/><path stroke-linecap="butt" transform="matrix(1.183691, 1.917611, -1.815338, 1.120561, 147.827733, 191.479967)" fill="none" stroke-linejoin="miter" d="M 0.000280627 -0.0000328489 L 19.971644 -0.000415407 " stroke="rgb(100%, 100%, 100%)" stroke-width="1" stroke-opacity="1" stroke-miterlimit="4"/><path stroke-linecap="butt" transform="matrix(2.242353, -0.0899385, 0.0901727, 2.248192, 126.859127, 216.347681)" fill="none" stroke-linejoin="miter" d="M 0.000111054 -0.00000656311 L 18.049334 -0.000754128 " stroke="rgb(100%, 100%, 100%)" stroke-width="1" stroke-opacity="1" stroke-miterlimit="4"/><path stroke-linecap="butt" transform="matrix(1.979486, 1.142857, -1.066667, 1.847521, 150.568924, 217.086943)" fill="none" stroke-linejoin="miter" d="M 0.000305974 -0.000733702 L 10.177468 0.000225145 " stroke="rgb(100%, 100%, 100%)" stroke-width="1" stroke-opacity="1" stroke-miterlimit="4"/><path stroke-linecap="butt" transform="matrix(1.597063, 1.577772, -1.581294, 1.600628, 205.402301, 113.333774)" fill="none" stroke-linejoin="miter" d="M -0.000532204 -0.000564286 L 7.015084 0.000229882 " stroke="rgb(100%, 100%, 100%)" stroke-width="1" stroke-opacity="1" stroke-miterlimit="4"/><path stroke-linecap="butt" transform="matrix(2.177511, -0.446508, 0.451968, 2.204138, 188.736129, 117.870352)" fill="none" stroke-linejoin="miter" d="M -0.000839971 0.000166249 L 7.763371 -0.000727859 " stroke="rgb(100%, 100%, 100%)" stroke-width="1" stroke-opacity="1" stroke-miterlimit="4"/><path stroke-linecap="butt" transform="matrix(1.388427, -1.826266, 1.698271, 1.291118, 176.627424, 133.097715)" fill="none" stroke-linejoin="miter" d="M 0.000411483 0.000536331 L 8.502636 0.000517792 " stroke="rgb(100%, 100%, 100%)" stroke-width="1" stroke-opacity="1" stroke-miterlimit="4"/><path stroke-linecap="butt" transform="matrix(1.895127, -1.222994, 1.156759, 1.79249, 73.475222, 200.395417)" fill="none" stroke-linejoin="miter" d="M 0.000712341 -0.00000825765 L 55.535557 0.000440576 " stroke="rgb(100%, 100%, 100%)" stroke-width="1" stroke-opacity="1" stroke-miterlimit="4"/><path stroke-linecap="butt" transform="matrix(2.302132, -0.0110015, 0.0107523, 2.249974, 181.165262, 127.797296)" fill="none" stroke-linejoin="miter" d="M -0.000520241 -0.000189838 L 6.51857 0.000435714 " stroke="rgb(100%, 100%, 100%)" stroke-width="1" stroke-opacity="1" stroke-miterlimit="4"/><path fill="rgb(100%, 100%, 100%)" d="M 200.351562 130.429688 C 199.371094 130.429688 198.453125 130.050781 197.761719 129.359375 C 197.070312 128.667969 196.6875 127.746094 196.6875 126.769531 C 196.6875 125.789062 197.070312 124.871094 197.761719 124.179688 C 198.453125 123.484375 199.371094 123.105469 200.351562 123.105469 C 201.328125 123.105469 202.25 123.484375 202.941406 124.179688 C 203.632812 124.871094 204.011719 125.789062 204.011719 126.769531 C 204.011719 127.746094 203.632812 128.667969 202.941406 129.359375 C 202.25 130.050781 201.328125 130.429688 200.351562 130.429688 Z M 200.351562 123.324219 C 199.429688 123.324219 198.566406 123.683594 197.917969 124.332031 C 197.265625 124.984375 196.90625 125.847656 196.90625 126.769531 C 196.90625 127.6875 197.265625 128.550781 197.917969 129.203125 C 198.566406 129.851562 199.429688 130.210938 200.351562 130.210938 C 201.269531 130.210938 202.136719 129.851562 202.785156 129.203125 C 203.433594 128.550781 203.792969 127.6875 203.792969 126.769531 C 203.792969 125.847656 203.433594 124.984375 202.785156 124.332031 C 202.136719 123.683594 201.269531 123.324219 200.351562 123.324219 Z M 200.351562 123.324219 " fill-opacity="1" fill-rule="nonzero"/><path fill="rgb(100%, 100%, 100%)" d="M 200.777344 131.285156 C 199.6875 131.285156 198.65625 130.859375 197.886719 130.085938 C 197.113281 129.316406 196.6875 128.285156 196.6875 127.195312 C 196.6875 126.101562 197.113281 125.074219 197.886719 124.304688 C 198.65625 123.53125 199.6875 123.105469 200.777344 123.105469 C 201.871094 123.105469 202.898438 123.53125 203.667969 124.304688 C 204.441406 125.078125 204.867188 126.101562 204.867188 127.195312 C 204.867188 128.285156 204.441406 129.316406 203.667969 130.085938 C 202.898438 130.859375 201.871094 131.285156 200.777344 131.285156 Z M 200.777344 123.351562 C 199.75 123.351562 198.785156 123.75 198.058594 124.476562 C 197.332031 125.203125 196.933594 126.167969 196.933594 127.195312 C 196.933594 128.222656 197.332031 129.1875 198.058594 129.914062 C 198.785156 130.640625 199.75 131.039062 200.777344 131.039062 C 201.804688 131.039062 202.769531 130.640625 203.496094 129.914062 C 204.222656 129.1875 204.621094 128.222656 204.621094 127.195312 C 204.621094 126.167969 204.222656 125.203125 203.496094 124.476562 C 202.769531 123.75 201.804688 123.351562 200.777344 123.351562 Z M 200.777344 123.351562 " fill-opacity="1" fill-rule="nonzero"/><path fill="rgb(100%, 100%, 100%)" d="M 200.777344 131.285156 C 199.6875 131.285156 198.65625 130.859375 197.886719 130.085938 C 197.113281 129.316406 196.6875 128.285156 196.6875 127.195312 C 196.6875 126.101562 197.113281 125.074219 197.886719 124.304688 C 198.65625 123.53125 199.6875 123.105469 200.777344 123.105469 C 201.871094 123.105469 202.898438 123.53125 203.667969 124.304688 C 204.441406 125.078125 204.867188 126.101562 204.867188 127.195312 C 204.867188 128.285156 204.441406 129.316406 203.667969 130.085938 C 202.898438 130.859375 201.871094 131.285156 200.777344 131.285156 Z M 200.777344 123.351562 C 199.75 123.351562 198.785156 123.75 198.058594 124.476562 C 197.332031 125.203125 196.933594 126.167969 196.933594 127.195312 C 196.933594 128.222656 197.332031 129.1875 198.058594 129.914062 C 198.785156 130.640625 199.75 131.039062 200.777344 131.039062 C 201.804688 131.039062 202.769531 130.640625 203.496094 129.914062 C 204.222656 129.1875 204.621094 128.222656 204.621094 127.195312 C 204.621094 126.167969 204.222656 125.203125 203.496094 124.476562 C 202.769531 123.75 201.804688 123.351562 200.777344 123.351562 Z M 200.777344 123.351562 " fill-opacity="1" fill-rule="nonzero"/><path fill="rgb(100%, 100%, 100%)" d="M 200.351562 131.285156 C 199.257812 131.285156 198.230469 130.859375 197.457031 130.085938 C 196.683594 129.316406 196.261719 128.285156 196.261719 127.195312 C 196.261719 126.101562 196.683594 125.074219 197.457031 124.304688 C 198.230469 123.53125 199.257812 123.105469 200.351562 123.105469 C 201.441406 123.105469 202.46875 123.53125 203.242188 124.304688 C 204.015625 125.078125 204.441406 126.101562 204.441406 127.195312 C 204.441406 128.285156 204.015625 129.316406 203.242188 130.085938 C 202.46875 130.859375 201.441406 131.285156 200.351562 131.285156 Z M 200.351562 123.351562 C 199.324219 123.351562 198.359375 123.75 197.632812 124.476562 C 196.90625 125.203125 196.503906 126.167969 196.503906 127.195312 C 196.503906 128.222656 196.90625 129.1875 197.632812 129.914062 C 198.359375 130.640625 199.324219 131.039062 200.351562 131.039062 C 201.375 131.039062 202.34375 130.640625 203.066406 129.914062 C 203.792969 129.1875 204.195312 128.222656 204.195312 127.195312 C 204.195312 126.167969 203.792969 125.203125 203.066406 124.476562 C 202.34375 123.75 201.375 123.351562 200.351562 123.351562 Z M 200.351562 123.351562 " fill-opacity="1" fill-rule="nonzero"/><path fill="rgb(100%, 100%, 100%)" d="M 200.777344 131.285156 C 199.6875 131.285156 198.65625 130.859375 197.886719 130.085938 C 197.113281 129.316406 196.6875 128.285156 196.6875 127.195312 C 196.6875 126.101562 197.113281 125.074219 197.886719 124.304688 C 198.65625 123.53125 199.6875 123.105469 200.777344 123.105469 C 201.871094 123.105469 202.898438 123.53125 203.667969 124.304688 C 204.441406 125.078125 204.867188 126.101562 204.867188 127.195312 C 204.867188 128.285156 204.441406 129.316406 203.667969 130.085938 C 202.898438 130.859375 201.871094 131.285156 200.777344 131.285156 Z M 200.777344 123.351562 C 199.75 123.351562 198.785156 123.75 198.058594 124.476562 C 197.332031 125.203125 196.933594 126.167969 196.933594 127.195312 C 196.933594 128.222656 197.332031 129.1875 198.058594 129.914062 C 198.785156 130.640625 199.75 131.039062 200.777344 131.039062 C 201.804688 131.039062 202.769531 130.640625 203.496094 129.914062 C 204.222656 129.1875 204.621094 128.222656 204.621094 127.195312 C 204.621094 126.167969 204.222656 125.203125 203.496094 124.476562 C 202.769531 123.75 201.804688 123.351562 200.777344 123.351562 Z M 200.777344 123.351562 " fill-opacity="1" fill-rule="nonzero"/><path fill="rgb(100%, 100%, 100%)" d="M 200.777344 131.285156 C 199.6875 131.285156 198.65625 130.859375 197.886719 130.085938 C 197.113281 129.316406 196.6875 128.285156 196.6875 127.195312 C 196.6875 126.101562 197.113281 125.074219 197.886719 124.304688 C 198.65625 123.53125 199.6875 123.105469 200.777344 123.105469 C 201.871094 123.105469 202.898438 123.53125 203.667969 124.304688 C 204.441406 125.078125 204.867188 126.101562 204.867188 127.195312 C 204.867188 128.285156 204.441406 129.316406 203.667969 130.085938 C 202.898438 130.859375 201.871094 131.285156 200.777344 131.285156 Z M 200.777344 123.351562 C 199.75 123.351562 198.785156 123.75 198.058594 124.476562 C 197.332031 125.203125 196.933594 126.167969 196.933594 127.195312 C 196.933594 128.222656 197.332031 129.1875 198.058594 129.914062 C 198.785156 130.640625 199.75 131.039062 200.777344 131.039062 C 201.804688 131.039062 202.769531 130.640625 203.496094 129.914062 C 204.222656 129.1875 204.621094 128.222656 204.621094 127.195312 C 204.621094 126.167969 204.222656 125.203125 203.496094 124.476562 C 202.769531 123.75 201.804688 123.351562 200.777344 123.351562 Z M 200.777344 123.351562 " fill-opacity="1" fill-rule="nonzero"/><path fill="rgb(100%, 100%, 100%)" d="M 199.921875 131.285156 C 198.832031 131.285156 197.804688 130.859375 197.03125 130.085938 C 196.257812 129.316406 195.832031 128.285156 195.832031 127.195312 C 195.832031 126.101562 196.257812 125.074219 197.03125 124.304688 C 197.804688 123.53125 198.832031 123.105469 199.921875 123.105469 C 201.015625 123.105469 202.042969 123.53125 202.8125 124.304688 C 203.585938 125.078125 204.011719 126.101562 204.011719 127.195312 C 204.011719 128.285156 203.585938 129.316406 202.8125 130.085938 C 202.042969 130.859375 201.015625 131.285156 199.921875 131.285156 Z M 199.921875 123.351562 C 198.894531 123.351562 197.929688 123.75 197.203125 124.476562 C 196.480469 125.203125 196.078125 126.167969 196.078125 127.195312 C 196.078125 128.222656 196.480469 129.1875 197.203125 129.914062 C 197.929688 130.640625 198.894531 131.039062 199.921875 131.039062 C 200.949219 131.039062 201.914062 130.640625 202.640625 129.914062 C 203.367188 129.1875 203.765625 128.222656 203.765625 127.195312 C 203.765625 126.167969 203.367188 125.203125 202.640625 124.476562 C 201.914062 123.75 200.949219 123.351562 199.921875 123.351562 Z M 199.921875 123.351562 " fill-opacity="1" fill-rule="nonzero"/><path fill="rgb(100%, 100%, 100%)" d="M 200.777344 131.285156 C 199.6875 131.285156 198.65625 130.859375 197.886719 130.085938 C 197.113281 129.316406 196.6875 128.285156 196.6875 127.195312 C 196.6875 126.101562 197.113281 125.074219 197.886719 124.304688 C 198.65625 123.53125 199.6875 123.105469 200.777344 123.105469 C 201.871094 123.105469 202.898438 123.53125 203.667969 124.304688 C 204.441406 125.078125 204.867188 126.101562 204.867188 127.195312 C 204.867188 128.285156 204.441406 129.316406 203.667969 130.085938 C 202.898438 130.859375 201.871094 131.285156 200.777344 131.285156 Z M 200.777344 123.351562 C 199.75 123.351562 198.785156 123.75 198.058594 124.476562 C 197.332031 125.203125 196.933594 126.167969 196.933594 127.195312 C 196.933594 128.222656 197.332031 129.1875 198.058594 129.914062 C 198.785156 130.640625 199.75 131.039062 200.777344 131.039062 C 201.804688 131.039062 202.769531 130.640625 203.496094 129.914062 C 204.222656 129.1875 204.621094 128.222656 204.621094 127.195312 C 204.621094 126.167969 204.222656 125.203125 203.496094 124.476562 C 202.769531 123.75 201.804688 123.351562 200.777344 123.351562 Z M 200.777344 123.351562 " fill-opacity="1" fill-rule="nonzero"/><path fill="rgb(100%, 100%, 100%)" d="M 200.777344 131.285156 C 199.6875 131.285156 198.65625 130.859375 197.886719 130.085938 C 197.113281 129.316406 196.6875 128.285156 196.6875 127.195312 C 196.6875 126.101562 197.113281 125.074219 197.886719 124.304688 C 198.65625 123.53125 199.6875 123.105469 200.777344 123.105469 C 201.871094 123.105469 202.898438 123.53125 203.667969 124.304688 C 204.441406 125.078125 204.867188 126.101562 204.867188 127.195312 C 204.867188 128.285156 204.441406 129.316406 203.667969 130.085938 C 202.898438 130.859375 201.871094 131.285156 200.777344 131.285156 Z M 200.777344 123.351562 C 199.75 123.351562 198.785156 123.75 198.058594 124.476562 C 197.332031 125.203125 196.933594 126.167969 196.933594 127.195312 C 196.933594 128.222656 197.332031 129.1875 198.058594 129.914062 C 198.785156 130.640625 199.75 131.039062 200.777344 131.039062 C 201.804688 131.039062 202.769531 130.640625 203.496094 129.914062 C 204.222656 129.1875 204.621094 128.222656 204.621094 127.195312 C 204.621094 126.167969 204.222656 125.203125 203.496094 124.476562 C 202.769531 123.75 201.804688 123.351562 200.777344 123.351562 Z M 200.777344 123.351562 " fill-opacity="1" fill-rule="nonzero"/><path fill="rgb(100%, 100%, 100%)" d="M 200.777344 131.285156 C 199.6875 131.285156 198.65625 130.859375 197.886719 130.085938 C 197.113281 129.316406 196.6875 128.285156 196.6875 127.195312 C 196.6875 126.101562 197.113281 125.074219 197.886719 124.304688 C 198.65625 123.53125 199.6875 123.105469 200.777344 123.105469 C 201.871094 123.105469 202.898438 123.53125 203.667969 124.304688 C 204.441406 125.078125 204.867188 126.101562 204.867188 127.195312 C 204.867188 128.285156 204.441406 129.316406 203.667969 130.085938 C 202.898438 130.859375 201.871094 131.285156 200.777344 131.285156 Z M 200.777344 123.351562 C 199.75 123.351562 198.785156 123.75 198.058594 124.476562 C 197.332031 125.203125 196.933594 126.167969 196.933594 127.195312 C 196.933594 128.222656 197.332031 129.1875 198.058594 129.914062 C 198.785156 130.640625 199.75 131.039062 200.777344 131.039062 C 201.804688 131.039062 202.769531 130.640625 203.496094 129.914062 C 204.222656 129.1875 204.621094 128.222656 204.621094 127.195312 C 204.621094 126.167969 204.222656 125.203125 203.496094 124.476562 C 202.769531 123.75 201.804688 123.351562 200.777344 123.351562 Z M 200.777344 123.351562 " fill-opacity="1" fill-rule="nonzero"/><path fill="rgb(100%, 100%, 100%)" d="M 200.777344 131.285156 C 199.6875 131.285156 198.65625 130.859375 197.886719 130.085938 C 197.113281 129.316406 196.6875 128.285156 196.6875 127.195312 C 196.6875 126.101562 197.113281 125.074219 197.886719 124.304688 C 198.65625 123.53125 199.6875 123.105469 200.777344 123.105469 C 201.871094 123.105469 202.898438 123.53125 203.667969 124.304688 C 204.441406 125.078125 204.867188 126.101562 204.867188 127.195312 C 204.867188 128.285156 204.441406 129.316406 203.667969 130.085938 C 202.898438 130.859375 201.871094 131.285156 200.777344 131.285156 Z M 200.777344 123.351562 C 199.75 123.351562 198.785156 123.75 198.058594 124.476562 C 197.332031 125.203125 196.933594 126.167969 196.933594 127.195312 C 196.933594 128.222656 197.332031 129.1875 198.058594 129.914062 C 198.785156 130.640625 199.75 131.039062 200.777344 131.039062 C 201.804688 131.039062 202.769531 130.640625 203.496094 129.914062 C 204.222656 129.1875 204.621094 128.222656 204.621094 127.195312 C 204.621094 126.167969 204.222656 125.203125 203.496094 124.476562 C 202.769531 123.75 201.804688 123.351562 200.777344 123.351562 Z M 200.777344 123.351562 " fill-opacity="1" fill-rule="nonzero"/><path fill="rgb(100%, 100%, 100%)" d="M 200.351562 131.285156 C 199.257812 131.285156 198.230469 130.859375 197.457031 130.085938 C 196.683594 129.316406 196.261719 128.285156 196.261719 127.195312 C 196.261719 126.101562 196.683594 125.074219 197.457031 124.304688 C 198.230469 123.53125 199.257812 123.105469 200.351562 123.105469 C 201.441406 123.105469 202.46875 123.53125 203.242188 124.304688 C 204.015625 125.078125 204.441406 126.101562 204.441406 127.195312 C 204.441406 128.285156 204.015625 129.316406 203.242188 130.085938 C 202.46875 130.859375 201.441406 131.285156 200.351562 131.285156 Z M 200.351562 123.351562 C 199.324219 123.351562 198.359375 123.75 197.632812 124.476562 C 196.90625 125.203125 196.503906 126.167969 196.503906 127.195312 C 196.503906 128.222656 196.90625 129.1875 197.632812 129.914062 C 198.359375 130.640625 199.324219 131.039062 200.351562 131.039062 C 201.375 131.039062 202.34375 130.640625 203.066406 129.914062 C 203.792969 129.1875 204.195312 128.222656 204.195312 127.195312 C 204.195312 126.167969 203.792969 125.203125 203.066406 124.476562 C 202.34375 123.75 201.375 123.351562 200.351562 123.351562 Z M 200.351562 123.351562 " fill-opacity="1" fill-rule="nonzero"/><path fill="rgb(100%, 100%, 100%)" d="M 201.304688 131.8125 C 200.214844 131.8125 199.1875 131.386719 198.414062 130.617188 C 197.640625 129.84375 197.214844 128.816406 197.214844 127.722656 C 197.214844 126.632812 197.640625 125.605469 198.414062 124.832031 C 199.1875 124.058594 200.214844 123.632812 201.304688 123.632812 C 202.398438 123.632812 203.425781 124.058594 204.199219 124.832031 C 204.972656 125.605469 205.394531 126.632812 205.394531 127.722656 C 205.394531 128.816406 204.972656 129.84375 204.199219 130.617188 C 203.425781 131.386719 202.398438 131.8125 201.304688 131.8125 Z M 201.304688 123.878906 C 200.28125 123.878906 199.3125 124.28125 198.589844 125.003906 C 197.863281 125.730469 197.460938 126.699219 197.460938 127.722656 C 197.460938 128.75 197.863281 129.714844 198.589844 130.441406 C 199.3125 131.167969 200.28125 131.566406 201.304688 131.566406 C 202.332031 131.566406 203.296875 131.167969 204.023438 130.441406 C 204.75 129.714844 205.152344 128.75 205.152344 127.722656 C 205.152344 126.699219 204.75 125.730469 204.023438 125.003906 C 203.296875 124.28125 202.332031 123.878906 201.304688 123.878906 Z M 201.304688 123.878906 " fill-opacity="1" fill-rule="nonzero"/><path fill="rgb(100%, 100%, 100%)" d="M 200.351562 131.214844 C 199.257812 131.214844 198.230469 130.789062 197.457031 130.015625 C 196.683594 129.242188 196.261719 128.214844 196.261719 127.125 C 196.261719 126.03125 196.683594 125.003906 197.457031 124.234375 C 198.230469 123.460938 199.257812 123.035156 200.351562 123.035156 C 201.441406 123.035156 202.46875 123.460938 203.242188 124.234375 C 204.015625 125.003906 204.441406 126.03125 204.441406 127.125 C 204.441406 128.214844 204.015625 129.242188 203.242188 130.015625 C 202.46875 130.789062 201.441406 131.214844 200.351562 131.214844 Z M 200.351562 123.28125 C 199.324219 123.28125 198.359375 123.679688 197.632812 124.40625 C 196.90625 125.132812 196.503906 126.097656 196.503906 127.125 C 196.503906 128.152344 196.90625 129.117188 197.632812 129.84375 C 198.359375 130.566406 199.324219 130.96875 200.351562 130.96875 C 201.375 130.96875 202.34375 130.566406 203.066406 129.84375 C 203.792969 129.117188 204.195312 128.152344 204.195312 127.125 C 204.195312 126.097656 203.792969 125.132812 203.066406 124.40625 C 202.34375 123.679688 201.375 123.28125 200.351562 123.28125 Z M 200.351562 123.28125 " fill-opacity="1" fill-rule="nonzero"/><path stroke-linecap="butt" transform="matrix(0.281931, -2.18186, 2.115743, 0.273388, 214.324342, 131.348399)" fill="none" stroke-linejoin="miter" d="M 0.000327481 -0.000101715 L 3.754657 -0.0000400525 " stroke="rgb(100%, 100%, 100%)" stroke-width="1" stroke-opacity="1" stroke-miterlimit="4"/><path stroke-linecap="butt" transform="matrix(0.202248, 2.249158, -2.12476, 0.191062, 214.121371, 131.317916)" fill="none" stroke-linejoin="miter" d="M -0.00067695 0.0000661616 L 9.966585 0.000176623 " stroke="rgb(100%, 100%, 100%)" stroke-width="1" stroke-opacity="1" stroke-miterlimit="4"/><path stroke-linecap="butt" transform="matrix(2.026597, -0.963359, 0.965971, 2.032092, 95.483173, 171.100666)" fill="none" stroke-linejoin="miter" d="M 0.000312487 0.000589133 L 40.446883 0.000444322 " stroke="rgb(100%, 100%, 100%)" stroke-width="1" stroke-opacity="1" stroke-miterlimit="4"/><path stroke-linecap="butt" transform="matrix(2.15381, -0.628245, 0.597378, 2.047987, 73.847124, 200.455842)" fill="none" stroke-linejoin="miter" d="M 0.0000794662 0.000605051 L 52.820643 0.000929178 " stroke="rgb(100%, 100%, 100%)" stroke-width="1" stroke-opacity="1" stroke-miterlimit="4"/><path stroke-linecap="butt" transform="matrix(-1.226368, -1.898518, 1.79198, -1.157549, 147.615084, 229.678653)" fill="none" stroke-linejoin="miter" d="M 0.0000481916 -0.00097281 L 21.903623 0.000407413 " stroke="rgb(100%, 100%, 100%)" stroke-width="1" stroke-opacity="1" stroke-miterlimit="4"/><path stroke-linecap="butt" transform="matrix(1.904373, 1.19002, -1.130519, 1.809154, 126.845768, 216.680273)" fill="none" stroke-linejoin="miter" d="M 0.000574858 -0.000701744 L 10.690033 0.000399243 " stroke="rgb(100%, 100%, 100%)" stroke-width="1" stroke-opacity="1" stroke-miterlimit="4"/><path stroke-linecap="butt" transform="matrix(-1.917089, -1.177824, 1.177824, -1.917089, 128.227803, 216.700663)" fill="none" stroke-linejoin="miter" d="M 0.000805964 0.000258379 L 13.336748 0.0000731055 " stroke="rgb(100%, 100%, 100%)" stroke-width="1" stroke-opacity="1" stroke-miterlimit="4"/><path stroke-linecap="butt" transform="matrix(-1.492536, -1.701378, 1.603706, -1.406854, 102.885583, 201.267716)" fill="none" stroke-linejoin="miter" d="M -0.000933635 -0.000160926 L 7.956141 0.000601409 " stroke="rgb(100%, 100%, 100%)" stroke-width="1" stroke-opacity="1" stroke-miterlimit="4"/><path stroke-linecap="butt" transform="matrix(0.626574, -2.205433, 2.164347, 0.614901, 90.444255, 189.916876)" fill="none" stroke-linejoin="miter" d="M -0.000332327 0.000584641 L 8.508092 -0.000817335 " stroke="rgb(100%, 100%, 100%)" stroke-width="1" stroke-opacity="1" stroke-miterlimit="4"/><path stroke-linecap="butt" transform="matrix(-2.242317, -0.175515, 0.166476, -2.126828, 187.820032, 196.600607)" fill="none" stroke-linejoin="miter" d="M -0.000157406 -0.000436228 L 42.682066 -0.0000602248 " stroke="rgb(100%, 100%, 100%)" stroke-width="1" stroke-opacity="1" stroke-miterlimit="4"/><path stroke-linecap="butt" transform="matrix(-0.0533383, -2.250044, 2.132734, -0.0505574, 188.600882, 196.976061)" fill="none" stroke-linejoin="miter" d="M -0.000230076 0.000313453 L 34.658807 0.000781135 " stroke="rgb(100%, 100%, 100%)" stroke-width="1" stroke-opacity="1" stroke-miterlimit="4"/></svg>