<svg xmlns="http://www.w3.org/2000/svg" xmlns:xlink="http://www.w3.org/1999/xlink" width="500" zoomAndPan="magnify" viewBox="0 0 375 374.999991" height="500" preserveAspectRatio="xMidYMid meet" version="1.0"><defs><g><g id="id1"/></g></defs><path stroke-linecap="butt" transform="matrix(1.995741, 1.031178, -1.032831, 1.99894, 228.831318, 122.236895)" fill="none" stroke-linejoin="miter" d="M 0.000565207 0.000401837 L 13.022008 -0.000423073 " stroke="rgb(100%, 100%, 100%)" stroke-width="1" stroke-opacity="1" stroke-miterlimit="4"/><path stroke-linecap="butt" transform="matrix(2.048836, -0.9144, 0.86945, 1.948119, 217.283018, 152.669169)" fill="none" stroke-linejoin="miter" d="M -0.000501633 -0.000851651 L 18.386365 -0.000621672 " stroke="rgb(100%, 100%, 100%)" stroke-width="1" stroke-opacity="1" stroke-miterlimit="4"/><path stroke-linecap="butt" transform="matrix(-2.23097, 0.200928, -0.201825, -2.24093, 229.938988, 122.798817)" fill="none" stroke-linejoin="miter" d="M 0.000583763 0.000918829 L 7.0358 0.000699027 " stroke="rgb(100%, 100%, 100%)" stroke-width="1" stroke-opacity="1" stroke-miterlimit="4"/><path stroke-linecap="butt" transform="matrix(2.248405, -0.119887, 0.11359, 2.130307, 219.604838, 137.701733)" fill="none" stroke-linejoin="miter" d="M 0.000246792 0.000667148 L 14.659952 0.000524145 " stroke="rgb(100%, 100%, 100%)" stroke-width="1" stroke-opacity="1" stroke-miterlimit="4"/><path stroke-linecap="butt" transform="matrix(1.377024, -1.794893, 1.785163, 1.369559, 174.968007, 159.407582)" fill="none" stroke-linejoin="miter" d="M 0.000667005 -0.0000980821 L 16.249191 0.000121736 " stroke="rgb(100%, 100%, 100%)" stroke-width="1" stroke-opacity="1" stroke-miterlimit="4"/><path stroke-linecap="butt" transform="matrix(2.005455, -1.023738, 0.969948, 1.900082, 119.508577, 188.785065)" fill="none" stroke-linejoin="miter" d="M -0.000320971 -0.000125017 L 49.969037 -0.000496382 " stroke="rgb(100%, 100%, 100%)" stroke-width="1" stroke-opacity="1" stroke-miterlimit="4"/><path stroke-linecap="butt" transform="matrix(-0.609022, 2.136754, -2.163824, -0.616738, 218.235005, 151.210228)" fill="none" stroke-linejoin="miter" d="M 0.000384563 0.000182714 L 12.489995 -0.000268777 " stroke="rgb(100%, 100%, 100%)" stroke-width="1" stroke-opacity="1" stroke-miterlimit="4"/><path stroke-linecap="butt" transform="matrix(1.700246, -1.494613, 1.485514, 1.689896, 167.079354, 215.844552)" fill="none" stroke-linejoin="miter" d="M -0.000173626 -0.000628281 L 25.513221 -0.000730106 " stroke="rgb(100%, 100%, 100%)" stroke-width="1" stroke-opacity="1" stroke-miterlimit="4"/><path stroke-linecap="butt" transform="matrix(1.957003, -1.129876, 1.066667, 1.847521, 148.862618, 191.747611)" fill="none" stroke-linejoin="miter" d="M 0.000589837 -0.000460301 L 34.849441 -0.000526653 " stroke="rgb(100%, 100%, 100%)" stroke-width="1" stroke-opacity="1" stroke-miterlimit="4"/><path stroke-linecap="butt" transform="matrix(1.183691, 1.917611, -1.815338, 1.120561, 147.827733, 191.479967)" fill="none" stroke-linejoin="miter" d="M 0.000280627 -0.0000328489 L 19.971644 -0.000415407 " stroke="rgb(100%, 100%, 100%)" stroke-width="1" stroke-opacity="1" stroke-miterlimit="4"/><path stroke-linecap="butt" transform="matrix(2.242353, -0.0899385, 0.0901727, 2.248192, 126.859127, 216.347681)" fill="none" stroke-linejoin="miter" d="M 0.000111054 -0.00000656311 L 18.049334 -0.000754128 " stroke="rgb(100%, 100%, 100%)" stroke-width="1" stroke-opacity="1" stroke-miterlimit="4"/><path stroke-linecap="butt" transform="matrix(1.979486, 1.142857, -1.066667, 1.847521, 150.568924, 217.086943)" fill="none" stroke-linejoin="miter" d="M 0.000305974 -0.000733702 L 10.177468 0.000225145 " stroke="rgb(100%, 100%, 100%)" stroke-width="1" stroke-opacity="1" stroke-miterlimit="4"/><path stroke-linecap="butt" transform="matrix(1.597063, 1.577772, -1.581294, 1.600628, 205.402301, 113.333774)" fill="none" stroke-linejoin="miter" d="M -0.000532204 -0.000564286 L 7.015084 0.000229882 " stroke="rgb(100%, 100%, 100%)" stroke-width="1" stroke-opacity="1" stroke-miterlimit="4"/><path stroke-linecap="butt" transform="matrix(2.177511, -0.446508, 0.451968, 2.204138, 188.736129, 117.870352)" fill="none" stroke-linejoin="miter" d="M -0.000839971 0.000166249 L 7.763371 -0.000727859 " stroke="rgb(100%, 100%, 100%)" stroke-width="1" stroke-opacity="1" stroke-miterlimit="4"/><path stroke-linecap="butt" transform="matrix(1.388427, -1.826266, 1.698271, 1.291118, 176.627424, 133.097715)" fill="none" stroke-linejoin="miter" d="M 0.000411483 0.000536331 L 8.502636 0.000517792 " stroke="rgb(100%, 100%, 100%)" stroke-width="1" stroke-opacity="1" stroke-miterlimit="4"/><path stroke-linecap="butt" transform="matrix(1.895127, -1.222994, 1.156759, 1.79249, 73.475222, 200.395417)" fill="none" stroke-linejoin="miter" d="M 0.000712341 -0.00000825765 L 55.535557 0.000440576 " stroke="rgb(100%, 100%, 100%)" stroke-width="1" stroke-opacity="1" stroke-miterlimit="4"/><path stroke-linecap="butt" transform="matrix(2.302132, -0.0110015, 0.0107523, 2.249974, 181.165262, 127.797296)" fill="none" stroke-linejoin="miter" d="M -0.000520241 -0.000189838 L 6.51857 0.000435714 " stroke="rgb(100%, 100%, 100%)" stroke-width="1" stroke-opacity="1" stroke-miterlimit="4"/><path fill="rgb(100%, 100%, 100%)" d="M 200.351562 130.429688 C 199.371094 130.429688 198.453125 130.050781 197.761719 129.359375 C 197.070312 128.667969 196.6875 127.746094 196.6875 126.769531 C 196.6875 125.789062 197.070312 124.871094 197.761719 124.179688 C 198.453125 123.484375 199.371094 123.105469 200.351562 123.105469 C 201.328125 123.105469 202.25 123.484375 202.941406 124.179688 C 203.632812 124.871094 204.011719 125.789062 204.011719 126.769531 C 204.011719 127.746094 203.632812 128.667969 202.941406 129.359375 C 202.25 130.050781 201.328125 130.429688 200.351562 130.429688 Z M 200.351562 123.324219 C 199.429688 123.324219 198.566406 123.683594 197.917969 124.332031 C 197.265625 124.984375 196.90625 125.847656 196.90625 126.769531 C 196.90625 127.6875 197.265625 128.550781 197.917969 129.203125 C 198.566406 129.851562 199.429688 130.210938 200.351562 130.210938 C 201.269531 130.210938 202.136719 129.851562 202.785156 129.203125 C 203.433594 128.550781 203.792969 127.6875 203.792969 126.769531 C 203.792969 125.847656 203.433594 124.984375 202.785156 124.332031 C 202.136719 123.683594 201.269531 123.324219 200.351562 123.324219 Z M 200.351562 123.324219 " fill-opacity="1" fill-rule="nonzero"/><path fill="rgb(100%, 100%, 100%)" d="M 200.777344 131.285156 C 199.6875 131.285156 198.65625 130.859375 197.886719 130.085938 C 197.113281 129.316406 196.6875 128.285156 196.6875 127.195312 C 196.6875 126.101562 197.113281 125.074219 197.886719 124.304688 C 198.65625 123.53125 199.6875 123.105469 200.777344 123.105469 C 201.871094 123.105469 202.898438 123.53125 203.667969 124.304688 C 204.441406 125.078125 204.867188 126.101562 204.867188 127.195312 C 204.867188 128.285156 204.441406 129.316406 203.667969 130.085938 C 202.898438 130.859375 201.871094 131.285156 200.777344 131.285156 Z M 200.777344 123.351562 C 199.75 123.351562 198.785156 123.75 198.058594 124.476562 C 197.332031 125.203125 196.933594 126.167969 196.933594 127.195312 C 196.933594 128.222656 197.332031 129.1875 198.058594 129.914062 C 198.785156 130.640625 199.75 131.039062 200.777344 131.039062 C 201.804688 131.039062 202.769531 130.640625 203.496094 129.914062 C 204.222656 129.1875 204.621094 128.222656 204.621094 127.195312 C 204.621094 126.167969 204.222656 125.203125 203.496094 124.476562 C 202.769531 123.75 201.804688 123.351562 200.777344 123.351562 Z M 200.777344 123.351562 " fill-opacity="1" fill-rule="nonzero"/><path fill="rgb(100%, 100%, 100%)" d="M 200.777344 131.285156 C 199.6875 131.285156 198.65625 130.859375 197.886719 130.085938 C 197.113281 129.316406 196.6875 128.285156 196.6875 127.195312 C 196.6875 126.101562 197.113281 125.074219 197.886719 124.304688 C 198.65625 123.53125 199.6875 123.105469 200.777344 123.105469 C 201.871094 123.105469 202.898438 123.53125 203.667969 124.304688 C 204.441406 125.078125 204.867188 126.101562 204.867188 127.195312 C 204.867188 128.285156 204.441406 129.316406 203.667969 130.085938 C 202.898438 130.859375 201.871094 131.285156 200.777344 131.285156 Z M 200.777344 123.351562 C 199.75 123.351562 198.785156 123.75 198.058594 124.476562 C 197.332031 125.203125 196.933594 126.167969 196.933594 127.195312 C 196.933594 128.222656 197.332031 129.1875 198.058594 129.914062 C 198.785156 130.640625 199.75 131.039062 200.777344 131.039062 C 201.804688 131.039062 202.769531 130.640625 203.496094 129.914062 C 204.222656 129.1875 204.621094 128.222656 204.621094 127.195312 C 204.621094 126.167969 204.222656 125.203125 203.496094 124.476562 C 202.769531 123.75 201.804688 123.351562 200.777344 123.351562 Z M 200.777344 123.351562 " fill-opacity="1" fill-rule="nonzero"/><path fill="rgb(100%, 100%, 100%)" d="M 200.351562 131.285156 C 199.257812 131.285156 198.230469 130.859375 197.457031 130.085938 C 196.683594 129.316406 196.261719 128.285156 196.261719 127.195312 C 196.261719 126.101562 196.683594 125.074219 197.457031 124.304688 C 198.230469 123.53125 199.257812 123.105469 200.351562 123.105469 C 201.441406 123.105469 202.46875 123.53125 203.242188 124.304688 C 204.015625 125.078125 204.441406 126.101562 204.441406 127.195312 C 204.441406 128.285156 204.015625 129.316406 203.242188 130.085938 C 202.46875 130.859375 201.441406 131.285156 200.351562 131.285156 Z M 200.351562 123.351562 C 199.324219 123.351562 198.359375 123.75 197.632812 124.476562 C 196.90625 125.203125 196.503906 126.167969 196.503906 127.195312 C 196.503906 128.222656 196.90625 129.1875 197.632812 129.914062 C 198.359375 130.640625 199.324219 131.039062 200.351562 131.039062 C 201.375 131.039062 202.34375 130.640625 203.066406 129.914062 C 203.792969 129.1875 204.195312 128.222656 204.195312 127.195312 C 204.195312 126.167969 203.792969 125.203125 203.066406 124.476562 C 202.34375 123.75 201.375 123.351562 200.351562 123.351562 Z M 200.351562 123.351562 " fill-opacity="1" fill-rule="nonzero"/><path fill="rgb(100%, 100%, 100%)" d="M 200.777344 131.285156 C 199.6875 131.285156 198.65625 130.859375 197.886719 130.085938 C 197.113281 129.316406 196.6875 128.285156 196.6875 127.195312 C 196.6875 126.101562 197.113281 125.074219 197.886719 124.304688 C 198.65625 123.53125 199.6875 123.105469 200.777344 123.105469 C 201.871094 123.105469 202.898438 123.53125 203.667969 124.304688 C 204.441406 125.078125 204.867188 126.101562 204.867188 127.195312 C 204.867188 128.285156 204.441406 129.316406 203.667969 130.085938 C 202.898438 130.859375 201.871094 131.285156 200.777344 131.285156 Z M 200.777344 123.351562 C 199.75 123.351562 198.785156 123.75 198.058594 124.476562 C 197.332031 125.203125 196.933594 126.167969 196.933594 127.195312 C 196.933594 128.222656 197.332031 129.1875 198.058594 129.914062 C 198.785156 130.640625 199.75 131.039062 200.777344 131.039062 C 201.804688 131.039062 202.769531 130.640625 203.496094 129.914062 C 204.222656 129.1875 204.621094 128.222656 204.621094 127.195312 C 204.621094 126.167969 204.222656 125.203125 203.496094 124.476562 C 202.769531 123.75 201.804688 123.351562 200.777344 123.351562 Z M 200.777344 123.351562 " fill-opacity="1" fill-rule="nonzero"/><path fill="rgb(100%, 100%, 100%)" d="M 200.777344 131.285156 C 199.6875 131.285156 198.65625 130.859375 197.886719 130.085938 C 197.113281 129.316406 196.6875 128.285156 196.6875 127.195312 C 196.6875 126.101562 197.113281 125.074219 197.886719 124.304688 C 198.65625 123.53125 199.6875 123.105469 200.777344 123.105469 C 201.871094 123.105469 202.898438 123.53125 203.667969 124.304688 C 204.441406 125.078125 204.867188 126.101562 204.867188 127.195312 C 204.867188 128.285156 204.441406 129.316406 203.667969 130.085938 C 202.898438 130.859375 201.871094 131.285156 200.777344 131.285156 Z M 200.777344 123.351562 C 199.75 123.351562 198.785156 123.75 198.058594 124.476562 C 197.332031 125.203125 196.933594 126.167969 196.933594 127.195312 C 196.933594 128.222656 197.332031 129.1875 198.058594 129.914062 C 198.785156 130.640625 199.75 131.039062 200.777344 131.039062 C 201.804688 131.039062 202.769531 130.640625 203.496094 129.914062 C 204.222656 129.1875 204.621094 128.222656 204.621094 127.195312 C 204.621094 126.167969 204.222656 125.203125 203.496094 124.476562 C 202.769531 123.75 201.804688 123.351562 200.777344 123.351562 Z M 200.777344 123.351562 " fill-opacity="1" fill-rule="nonzero"/><path fill="rgb(100%, 100%, 100%)" d="M 199.921875 131.285156 C 198.832031 131.285156 197.804688 130.859375 197.03125 130.085938 C 196.257812 129.316406 195.832031 128.285156 195.832031 127.195312 C 195.832031 126.101562 196.257812 125.074219 197.03125 124.304688 C 197.804688 123.53125 198.832031 123.105469 199.921875 123.105469 C 201.015625 123.105469 202.042969 123.53125 202.8125 124.304688 C 203.585938 125.078125 204.011719 126.101562 204.011719 127.195312 C 204.011719 128.285156 203.585938 129.316406 202.8125 130.085938 C 202.042969 130.859375 201.015625 131.285156 199.921875 131.285156 Z M 199.921875 123.351562 C 198.894531 123.351562 197.929688 123.75 197.203125 124.476562 C 196.480469 125.203125 196.078125 126.167969 196.078125 127.195312 C 196.078125 128.222656 196.480469 129.1875 197.203125 129.914062 C 197.929688 130.640625 198.894531 131.039062 199.921875 131.039062 C 200.949219 131.039062 201.914062 130.640625 202.640625 129.914062 C 203.367188 129.1875 203.765625 128.222656 203.765625 127.195312 C 203.765625 126.167969 203.367188 125.203125 202.640625 124.476562 C 201.914062 123.75 200.949219 123.351562 199.921875 123.351562 Z M 199.921875 123.351562 " fill-opacity="1" fill-rule="nonzero"/><path fill="rgb(100%, 100%, 100%)" d="M 200.777344 131.285156 C 199.6875 131.285156 198.65625 130.859375 197.886719 130.085938 C 197.113281 129.316406 196.6875 128.285156 196.6875 127.195312 C 196.6875 126.101562 197.113281 125.074219 197.886719 124.304688 C 198.65625 123.53125 199.6875 123.105469 200.777344 123.105469 C 201.871094 123.105469 202.898438 123.53125 203.667969 124.304688 C 204.441406 125.078125 204.867188 126.101562 204.867188 127.195312 C 204.867188 128.285156 204.441406 129.316406 203.667969 130.085938 C 202.898438 130.859375 201.871094 131.285156 200.777344 131.285156 Z M 200.777344 123.351562 C 199.75 123.351562 198.785156 123.75 198.058594 124.476562 C 197.332031 125.203125 196.933594 126.167969 196.933594 127.195312 C 196.933594 128.222656 197.332031 129.1875 198.058594 129.914062 C 198.785156 130.640625 199.75 131.039062 200.777344 131.039062 C 201.804688 131.039062 202.769531 130.640625 203.496094 129.914062 C 204.222656 129.1875 204.621094 128.222656 204.621094 127.195312 C 204.621094 126.167969 204.222656 125.203125 203.496094 124.476562 C 202.769531 123.75 201.804688 123.351562 200.777344 123.351562 Z M 200.777344 123.351562 " fill-opacity="1" fill-rule="nonzero"/><path fill="rgb(100%, 100%, 100%)" d="M 200.777344 131.285156 C 199.6875 131.285156 198.65625 130.859375 197.886719 130.085938 C 197.113281 129.316406 196.6875 128.285156 196.6875 127.195312 C 196.6875 126.101562 197.113281 125.074219 197.886719 124.304688 C 198.65625 123.53125 199.6875 123.105469 200.777344 123.105469 C 201.871094 123.105469 202.898438 123.53125 203.667969 124.304688 C 204.441406 125.078125 204.867188 126.101562 204.867188 127.195312 C 204.867188 128.285156 204.441406 129.316406 203.667969 130.085938 C 202.898438 130.859375 201.871094 131.285156 200.777344 131.285156 Z M 200.777344 123.351562 C 199.75 123.351562 198.785156 123.75 198.058594 124.476562 C 197.332031 125.203125 196.933594 126.167969 196.933594 127.195312 C 196.933594 128.222656 197.332031 129.1875 198.058594 129.914062 C 198.785156 130.640625 199.75 131.039062 200.777344 131.039062 C 201.804688 131.039062 202.769531 130.640625 203.496094 129.914062 C 204.222656 129.1875 204.621094 128.222656 204.621094 127.195312 C 204.621094 126.167969 204.222656 125.203125 203.496094 124.476562 C 202.769531 123.75 201.804688 123.351562 200.777344 123.351562 Z M 200.777344 123.351562 " fill-opacity="1" fill-rule="nonzero"/><path fill="rgb(100%, 100%, 100%)" d="M 200.777344 131.285156 C 199.6875 131.285156 198.65625 130.859375 197.886719 130.085938 C 197.113281 129.316406 196.6875 128.285156 196.6875 127.195312 C 196.6875 126.101562 197.113281 125.074219 197.886719 124.304688 C 198.65625 123.53125 199.6875 123.105469 200.777344 123.105469 C 201.871094 123.105469 202.898438 123.53125 203.667969 124.304688 C 204.441406 125.078125 204.867188 126.101562 204.867188 127.195312 C 204.867188 128.285156 204.441406 129.316406 203.667969 130.085938 C 202.898438 130.859375 201.871094 131.285156 200.777344 131.285156 Z M 200.777344 123.351562 C 199.75 123.351562 198.785156 123.75 198.058594 124.476562 C 197.332031 125.203125 196.933594 126.167969 196.933594 127.195312 C 196.933594 128.222656 197.332031 129.1875 198.058594 129.914062 C 198.785156 130.640625 199.75 131.039062 200.777344 131.039062 C 201.804688 131.039062 202.769531 130.640625 203.496094 129.914062 C 204.222656 129.1875 204.621094 128.222656 204.621094 127.195312 C 204.621094 126.167969 204.222656 125.203125 203.496094 124.476562 C 202.769531 123.75 201.804688 123.351562 200.777344 123.351562 Z M 200.777344 123.351562 " fill-opacity="1" fill-rule="nonzero"/><path fill="rgb(100%, 100%, 100%)" d="M 200.777344 131.285156 C 199.6875 131.285156 198.65625 130.859375 197.886719 130.085938 C 197.113281 129.316406 196.6875 128.285156 196.6875 127.195312 C 196.6875 126.101562 197.113281 125.074219 197.886719 124.304688 C 198.65625 123.53125 199.6875 123.105469 200.777344 123.105469 C 201.871094 123.105469 202.898438 123.53125 203.667969 124.304688 C 204.441406 125.078125 204.867188 126.101562 204.867188 127.195312 C 204.867188 128.285156 204.441406 129.316406 203.667969 130.085938 C 202.898438 130.859375 201.871094 131.285156 200.777344 131.285156 Z M 200.777344 123.351562 C 199.75 123.351562 198.785156 123.75 198.058594 124.476562 C 197.332031 125.203125 196.933594 126.167969 196.933594 127.195312 C 196.933594 128.222656 197.332031 129.1875 198.058594 129.914062 C 198.785156 130.640625 199.75 131.039062 200.777344 131.039062 C 201.804688 131.039062 202.769531 130.640625 203.496094 129.914062 C 204.222656 129.1875 204.621094 128.222656 204.621094 127.195312 C 204.621094 126.167969 204.222656 125.203125 203.496094 124.476562 C 202.769531 123.75 201.804688 123.351562 200.777344 123.351562 Z M 200.777344 123.351562 " fill-opacity="1" fill-rule="nonzero"/><path fill="rgb(100%, 100%, 100%)" d="M 200.351562 131.285156 C 199.257812 131.285156 198.230469 130.859375 197.457031 130.085938 C 196.683594 129.316406 196.261719 128.285156 196.261719 127.195312 C 196.261719 126.101562 196.683594 125.074219 197.457031 124.304688 C 198.230469 123.53125 199.257812 123.105469 200.351562 123.105469 C 201.441406 123.105469 202.46875 123.53125 203.242188 124.304688 C 204.015625 125.078125 204.441406 126.101562 204.441406 127.195312 C 204.441406 128.285156 204.015625 129.316406 203.242188 130.085938 C 202.46875 130.859375 201.441406 131.285156 200.351562 131.285156 Z M 200.351562 123.351562 C 199.324219 123.351562 198.359375 123.75 197.632812 124.476562 C 196.90625 125.203125 196.503906 126.167969 196.503906 127.195312 C 196.503906 128.222656 196.90625 129.1875 197.632812 129.914062 C 198.359375 130.640625 199.324219 131.039062 200.351562 131.039062 C 201.375 131.039062 202.34375 130.640625 203.066406 129.914062 C 203.792969 129.1875 204.195312 128.222656 204.195312 127.195312 C 204.195312 126.167969 203.792969 125.203125 203.066406 124.476562 C 202.34375 123.75 201.375 123.351562 200.351562 123.351562 Z M 200.351562 123.351562 " fill-opacity="1" fill-rule="nonzero"/><path fill="rgb(100%, 100%, 100%)" d="M 201.304688 131.8125 C 200.214844 131.8125 199.1875 131.386719 198.414062 130.617188 C 197.640625 129.84375 197.214844 128.816406 197.214844 127.722656 C 197.214844 126.632812 197.640625 125.605469 198.414062 124.832031 C 199.1875 124.058594 200.214844 123.632812 201.304688 123.632812 C 202.398438 123.632812 203.425781 124.058594 204.199219 124.832031 C 204.972656 125.605469 205.394531 126.632812 205.394531 127.722656 C 205.394531 128.816406 204.972656 129.84375 204.199219 130.617188 C 203.425781 131.386719 202.398438 131.8125 201.304688 131.8125 Z M 201.304688 123.878906 C 200.28125 123.878906 199.3125 124.28125 198.589844 125.003906 C 197.863281 125.730469 197.460938 126.699219 197.460938 127.722656 C 197.460938 128.75 197.863281 129.714844 198.589844 130.441406 C 199.3125 131.167969 200.28125 131.566406 201.304688 131.566406 C 202.332031 131.566406 203.296875 131.167969 204.023438 130.441406 C 204.75 129.714844 205.152344 128.75 205.152344 127.722656 C 205.152344 126.699219 204.75 125.730469 204.023438 125.003906 C 203.296875 124.28125 202.332031 123.878906 201.304688 123.878906 Z M 201.304688 123.878906 " fill-opacity="1" fill-rule="nonzero"/><path fill="rgb(100%, 100%, 100%)" d="M 200.777344 132.34375 C 199.6875 132.34375 198.65625 131.917969 197.886719 131.144531 C 197.113281 130.371094 196.6875 129.34375 196.6875 128.253906 C 196.6875 127.160156 197.113281 126.132812 197.886719 125.363281 C 198.65625 124.589844 199.6875 124.164062 200.777344 124.164062 C 201.871094 124.164062 202.898438 124.589844 203.667969 125.363281 C 204.441406 126.132812 204.867188 127.160156 204.867188 128.253906 C 204.867188 129.34375 204.441406 130.371094 203.667969 131.144531 C 202.898438 131.917969 201.871094 132.34375 200.777344 132.34375 Z M 200.777344 124.410156 C 199.75 124.410156 198.785156 124.808594 198.058594 125.535156 C 197.332031 126.261719 196.933594 127.226562 196.933594 128.253906 C 196.933594 129.277344 197.332031 130.246094 198.058594 130.972656 C 198.785156 131.695312 199.75 132.097656 200.777344 132.097656 C 201.804688 132.097656 202.769531 131.695312 203.496094 130.972656 C 204.222656 130.246094 204.621094 129.277344 204.621094 128.253906 C 204.621094 127.226562 204.222656 126.261719 203.496094 125.535156 C 202.769531 124.808594 201.804688 124.410156 200.777344 124.410156 Z M 200.777344 124.410156 " fill-opacity="1" fill-rule="nonzero"/><path stroke-linecap="butt" transform="matrix(0.281931, -2.18186, 2.115743, 0.273388, 214.324342, 131.348399)" fill="none" stroke-linejoin="miter" d="M 0.000327481 -0.000101715 L 3.754657 -0.0000400525 " stroke="rgb(100%, 100%, 100%)" stroke-width="1" stroke-opacity="1" stroke-miterlimit="4"/><path stroke-linecap="butt" transform="matrix(0.202248, 2.249158, -2.12476, 0.191062, 214.121371, 131.317916)" fill="none" stroke-linejoin="miter" d="M -0.00067695 0.0000661616 L 9.966585 0.000176623 " stroke="rgb(100%, 100%, 100%)" stroke-width="1" stroke-opacity="1" stroke-miterlimit="4"/><path stroke-linecap="butt" transform="matrix(2.026597, -0.963359, 0.965971, 2.032092, 95.483173, 171.100666)" fill="none" stroke-linejoin="miter" d="M 0.000312487 0.000589133 L 40.446883 0.000444322 " stroke="rgb(100%, 100%, 100%)" stroke-width="1" stroke-opacity="1" stroke-miterlimit="4"/><path stroke-linecap="butt" transform="matrix(2.15381, -0.628245, 0.597378, 2.047987, 73.847124, 200.455842)" fill="none" stroke-linejoin="miter" d="M 0.0000794662 0.000605051 L 52.820643 0.000929178 " stroke="rgb(100%, 100%, 100%)" stroke-width="1" stroke-opacity="1" stroke-miterlimit="4"/><path stroke-linecap="butt" transform="matrix(-1.226368, -1.898518, 1.79198, -1.157549, 147.615084, 229.678653)" fill="none" stroke-linejoin="miter" d="M 0.0000481916 -0.00097281 L 21.903623 0.000407413 " stroke="rgb(100%, 100%, 100%)" stroke-width="1" stroke-opacity="1" stroke-miterlimit="4"/><path stroke-linecap="butt" transform="matrix(1.904373, 1.19002, -1.130519, 1.809154, 126.845768, 216.680273)" fill="none" stroke-linejoin="miter" d="M 0.000574858 -0.000701744 L 10.690033 0.000399243 " stroke="rgb(100%, 100%, 100%)" stroke-width="1" stroke-opacity="1" stroke-miterlimit="4"/><path stroke-linecap="butt" transform="matrix(-1.917089, -1.177824, 1.177824, -1.917089, 128.227803, 216.700663)" fill="none" stroke-linejoin="miter" d="M 0.000805964 0.000258379 L 13.336748 0.0000731055 " stroke="rgb(100%, 100%, 100%)" stroke-width="1" stroke-opacity="1" stroke-miterlimit="4"/><path stroke-linecap="butt" transform="matrix(-1.492536, -1.701378, 1.603706, -1.406854, 102.885583, 201.267716)" fill="none" stroke-linejoin="miter" d="M -0.000933635 -0.000160926 L 7.956141 0.000601409 " stroke="rgb(100%, 100%, 100%)" stroke-width="1" stroke-opacity="1" stroke-miterlimit="4"/><path stroke-linecap="butt" transform="matrix(0.626574, -2.205433, 2.164347, 0.614901, 90.444255, 189.916876)" fill="none" stroke-linejoin="miter" d="M -0.000332327 0.000584641 L 8.508092 -0.000817335 " stroke="rgb(100%, 100%, 100%)" stroke-width="1" stroke-opacity="1" stroke-miterlimit="4"/><path stroke-linecap="butt" transform="matrix(-2.242317, -0.175515, 0.166476, -2.126828, 187.820032, 196.600607)" fill="none" stroke-linejoin="miter" d="M -0.000157406 -0.000436228 L 42.682066 -0.0000602248 " stroke="rgb(100%, 100%, 100%)" stroke-width="1" stroke-opacity="1" stroke-miterlimit="4"/><path stroke-linecap="butt" transform="matrix(-0.0533383, -2.250044, 2.132734, -0.0505574, 188.600882, 196.976061)" fill="none" stroke-linejoin="miter" d="M -0.000230076 0.000313453 L 34.658807 0.000781135 " stroke="rgb(100%, 100%, 100%)" stroke-width="1" stroke-opacity="1" stroke-miterlimit="4"/><g fill="rgb(100%, 100%, 100%)" fill-opacity="1"><g transform="translate(65.130927, 256.604589)"><g><path d="M 22.96875 -5.71875 C 23.175781 -5.71875 23.359375 -5.632812 23.515625 -5.46875 L 25 -3.859375 C 23.863281 -2.546875 22.488281 -1.519531 20.875 -0.78125 C 19.257812 -0.0507812 17.304688 0.3125 15.015625 0.3125 C 13.023438 0.3125 11.21875 -0.03125 9.59375 -0.71875 C 7.976562 -1.414062 6.597656 -2.382812 5.453125 -3.625 C 4.304688 -4.863281 3.414062 -6.351562 2.78125 -8.09375 C 2.144531 -9.832031 1.828125 -11.742188 1.828125 -13.828125 C 1.828125 -15.921875 2.15625 -17.832031 2.8125 -19.5625 C 3.476562 -21.300781 4.40625 -22.796875 5.59375 -24.046875 C 6.78125 -25.296875 8.203125 -26.265625 9.859375 -26.953125 C 11.523438 -27.648438 13.363281 -28 15.375 -28 C 17.34375 -28 19.082031 -27.679688 20.59375 -27.046875 C 22.101562 -26.421875 23.429688 -25.566406 24.578125 -24.484375 L 23.34375 -22.765625 C 23.257812 -22.628906 23.15625 -22.519531 23.03125 -22.4375 C 22.914062 -22.351562 22.753906 -22.3125 22.546875 -22.3125 C 22.316406 -22.3125 22.03125 -22.4375 21.6875 -22.6875 C 21.351562 -22.9375 20.914062 -23.21875 20.375 -23.53125 C 19.84375 -23.84375 19.171875 -24.125 18.359375 -24.375 C 17.546875 -24.625 16.546875 -24.75 15.359375 -24.75 C 13.929688 -24.75 12.625 -24.5 11.4375 -24 C 10.25 -23.507812 9.226562 -22.789062 8.375 -21.84375 C 7.519531 -20.90625 6.851562 -19.757812 6.375 -18.40625 C 5.894531 -17.0625 5.65625 -15.535156 5.65625 -13.828125 C 5.65625 -12.109375 5.90625 -10.570312 6.40625 -9.21875 C 6.90625 -7.863281 7.582031 -6.71875 8.4375 -5.78125 C 9.289062 -4.851562 10.300781 -4.144531 11.46875 -3.65625 C 12.632812 -3.164062 13.894531 -2.921875 15.25 -2.921875 C 16.070312 -2.921875 16.8125 -2.96875 17.46875 -3.0625 C 18.132812 -3.15625 18.75 -3.304688 19.3125 -3.515625 C 19.875 -3.722656 20.394531 -3.984375 20.875 -4.296875 C 21.351562 -4.609375 21.832031 -4.984375 22.3125 -5.421875 C 22.53125 -5.617188 22.75 -5.71875 22.96875 -5.71875 Z M 22.96875 -5.71875 "/></g></g></g><g fill="rgb(100%, 100%, 100%)" fill-opacity="1"><g transform="translate(90.938004, 256.604589)"><g><path d="M 29.109375 -13.828125 C 29.109375 -11.753906 28.78125 -9.851562 28.125 -8.125 C 27.46875 -6.394531 26.539062 -4.90625 25.34375 -3.65625 C 24.144531 -2.40625 22.707031 -1.429688 21.03125 -0.734375 C 19.351562 -0.046875 17.492188 0.296875 15.453125 0.296875 C 13.421875 0.296875 11.566406 -0.046875 9.890625 -0.734375 C 8.210938 -1.429688 6.773438 -2.40625 5.578125 -3.65625 C 4.378906 -4.90625 3.453125 -6.394531 2.796875 -8.125 C 2.140625 -9.851562 1.8125 -11.753906 1.8125 -13.828125 C 1.8125 -15.898438 2.140625 -17.800781 2.796875 -19.53125 C 3.453125 -21.269531 4.378906 -22.765625 5.578125 -24.015625 C 6.773438 -25.273438 8.210938 -26.253906 9.890625 -26.953125 C 11.566406 -27.648438 13.421875 -28 15.453125 -28 C 17.492188 -28 19.351562 -27.648438 21.03125 -26.953125 C 22.707031 -26.253906 24.144531 -25.273438 25.34375 -24.015625 C 26.539062 -22.765625 27.46875 -21.269531 28.125 -19.53125 C 28.78125 -17.800781 29.109375 -15.898438 29.109375 -13.828125 Z M 25.265625 -13.828125 C 25.265625 -15.535156 25.03125 -17.0625 24.5625 -18.40625 C 24.101562 -19.757812 23.445312 -20.90625 22.59375 -21.84375 C 21.75 -22.78125 20.722656 -23.5 19.515625 -24 C 18.304688 -24.5 16.953125 -24.75 15.453125 -24.75 C 13.972656 -24.75 12.628906 -24.5 11.421875 -24 C 10.210938 -23.5 9.175781 -22.78125 8.3125 -21.84375 C 7.457031 -20.90625 6.796875 -19.757812 6.328125 -18.40625 C 5.867188 -17.0625 5.640625 -15.535156 5.640625 -13.828125 C 5.640625 -12.128906 5.867188 -10.609375 6.328125 -9.265625 C 6.796875 -7.921875 7.457031 -6.78125 8.3125 -5.84375 C 9.175781 -4.90625 10.210938 -4.1875 11.421875 -3.6875 C 12.628906 -3.195312 13.972656 -2.953125 15.453125 -2.953125 C 16.953125 -2.953125 18.304688 -3.195312 19.515625 -3.6875 C 20.722656 -4.1875 21.75 -4.90625 22.59375 -5.84375 C 23.445312 -6.78125 24.101562 -7.921875 24.5625 -9.265625 C 25.03125 -10.609375 25.265625 -12.128906 25.265625 -13.828125 Z M 25.265625 -13.828125 "/></g></g></g><g fill="rgb(100%, 100%, 100%)" fill-opacity="1"><g transform="translate(121.863986, 256.604589)"><g><path d="M 11.203125 -14.28125 C 12.285156 -14.28125 13.242188 -14.410156 14.078125 -14.671875 C 14.910156 -14.929688 15.601562 -15.300781 16.15625 -15.78125 C 16.71875 -16.269531 17.140625 -16.847656 17.421875 -17.515625 C 17.710938 -18.191406 17.859375 -18.9375 17.859375 -19.75 C 17.859375 -21.394531 17.316406 -22.632812 16.234375 -23.46875 C 15.148438 -24.3125 13.523438 -24.734375 11.359375 -24.734375 L 7.265625 -24.734375 L 7.265625 -14.28125 Z M 24 0 L 20.671875 0 C 19.992188 0 19.492188 -0.265625 19.171875 -0.796875 L 11.984375 -10.6875 C 11.765625 -10.988281 11.523438 -11.207031 11.265625 -11.34375 C 11.015625 -11.476562 10.628906 -11.546875 10.109375 -11.546875 L 7.265625 -11.546875 L 7.265625 0 L 3.53125 0 L 3.53125 -27.6875 L 11.359375 -27.6875 C 13.109375 -27.6875 14.617188 -27.507812 15.890625 -27.15625 C 17.171875 -26.800781 18.226562 -26.285156 19.0625 -25.609375 C 19.894531 -24.941406 20.507812 -24.132812 20.90625 -23.1875 C 21.300781 -22.25 21.5 -21.191406 21.5 -20.015625 C 21.5 -19.035156 21.34375 -18.117188 21.03125 -17.265625 C 20.726562 -16.421875 20.28125 -15.660156 19.6875 -14.984375 C 19.101562 -14.304688 18.390625 -13.726562 17.546875 -13.25 C 16.703125 -12.769531 15.75 -12.410156 14.6875 -12.171875 C 15.15625 -11.898438 15.566406 -11.507812 15.921875 -11 Z M 24 0 "/></g></g></g><g fill="rgb(100%, 100%, 100%)" fill-opacity="1"><g transform="translate(146.067773, 256.604589)"><g><path d="M 26.046875 -27.6875 L 14.765625 0 L 11.40625 0 L 0.109375 -27.6875 L 3.109375 -27.6875 C 3.441406 -27.6875 3.710938 -27.601562 3.921875 -27.4375 C 4.128906 -27.269531 4.285156 -27.054688 4.390625 -26.796875 L 12.1875 -7.265625 C 12.351562 -6.828125 12.515625 -6.347656 12.671875 -5.828125 C 12.835938 -5.316406 12.988281 -4.78125 13.125 -4.21875 C 13.25 -4.78125 13.378906 -5.316406 13.515625 -5.828125 C 13.660156 -6.347656 13.816406 -6.828125 13.984375 -7.265625 L 21.78125 -26.796875 C 21.851562 -27.015625 22 -27.21875 22.21875 -27.40625 C 22.445312 -27.59375 22.722656 -27.6875 23.046875 -27.6875 Z M 26.046875 -27.6875 "/></g></g></g><g fill="rgb(100%, 100%, 100%)" fill-opacity="1"><g transform="translate(172.222543, 256.604589)"><g><path d="M 7.28125 0 L 3.53125 0 L 3.53125 -27.6875 L 7.28125 -27.6875 Z M 7.28125 0 "/></g></g></g><g fill="rgb(100%, 100%, 100%)" fill-opacity="1"><g transform="translate(183.039874, 256.604589)"><g><path d="M 27.53125 -13.828125 C 27.53125 -11.753906 27.203125 -9.867188 26.546875 -8.171875 C 25.890625 -6.472656 24.960938 -5.015625 23.765625 -3.796875 C 22.566406 -2.585938 21.125 -1.648438 19.4375 -0.984375 C 17.757812 -0.328125 15.90625 0 13.875 0 L 3.53125 0 L 3.53125 -27.6875 L 13.875 -27.6875 C 15.90625 -27.6875 17.757812 -27.351562 19.4375 -26.6875 C 21.125 -26.03125 22.566406 -25.09375 23.765625 -23.875 C 24.960938 -22.65625 25.890625 -21.191406 26.546875 -19.484375 C 27.203125 -17.785156 27.53125 -15.898438 27.53125 -13.828125 Z M 23.6875 -13.828125 C 23.6875 -15.535156 23.453125 -17.054688 22.984375 -18.390625 C 22.523438 -19.734375 21.867188 -20.867188 21.015625 -21.796875 C 20.171875 -22.722656 19.140625 -23.429688 17.921875 -23.921875 C 16.710938 -24.410156 15.363281 -24.65625 13.875 -24.65625 L 7.28125 -24.65625 L 7.28125 -3.03125 L 13.875 -3.03125 C 15.363281 -3.03125 16.710938 -3.273438 17.921875 -3.765625 C 19.140625 -4.253906 20.171875 -4.957031 21.015625 -5.875 C 21.867188 -6.800781 22.523438 -7.929688 22.984375 -9.265625 C 23.453125 -10.609375 23.6875 -12.128906 23.6875 -13.828125 Z M 23.6875 -13.828125 "/></g></g></g><g fill="rgb(100%, 100%, 100%)" fill-opacity="1"><g transform="translate(212.420536, 256.604589)"><g><path d="M 18.234375 -10.28125 L 13.890625 -21.546875 C 13.765625 -21.878906 13.628906 -22.265625 13.484375 -22.703125 C 13.335938 -23.148438 13.203125 -23.625 13.078125 -24.125 C 12.804688 -23.082031 12.53125 -22.210938 12.25 -21.515625 L 7.90625 -10.28125 Z M 26.046875 0 L 23.140625 0 C 22.804688 0 22.535156 -0.0820312 22.328125 -0.25 C 22.128906 -0.414062 21.976562 -0.628906 21.875 -0.890625 L 19.28125 -7.578125 L 6.859375 -7.578125 L 4.265625 -0.890625 C 4.191406 -0.660156 4.046875 -0.453125 3.828125 -0.265625 C 3.609375 -0.0859375 3.335938 0 3.015625 0 L 0.109375 0 L 11.1875 -27.6875 L 14.96875 -27.6875 Z M 26.046875 0 "/></g></g></g><g fill="rgb(100%, 100%, 100%)" fill-opacity="1"><g transform="translate(238.575307, 256.604589)"><g><path d="M 20.609375 -3.046875 L 20.59375 0 L 3.53125 0 L 3.53125 -27.6875 L 20.59375 -27.6875 L 20.59375 -24.640625 L 7.28125 -24.640625 L 7.28125 -15.4375 L 18.0625 -15.4375 L 18.0625 -12.5 L 7.28125 -12.5 L 7.28125 -3.046875 Z M 20.609375 -3.046875 "/></g></g></g><g fill="rgb(100%, 100%, 100%)" fill-opacity="1"><g transform="translate(260.886062, 256.604589)"><g><path d="M 22.25 -24.53125 L 13.296875 -24.53125 L 13.296875 0 L 9.5625 0 L 9.5625 -24.53125 L 0.578125 -24.53125 L 0.578125 -27.6875 L 22.25 -27.6875 Z M 22.25 -24.53125 "/></g></g></g><g fill="rgb(100%, 100%, 100%)" fill-opacity="1"><g transform="translate(283.699055, 256.604589)"><g><path d="M 18.234375 -10.28125 L 13.890625 -21.546875 C 13.765625 -21.878906 13.628906 -22.265625 13.484375 -22.703125 C 13.335938 -23.148438 13.203125 -23.625 13.078125 -24.125 C 12.804688 -23.082031 12.53125 -22.210938 12.25 -21.515625 L 7.90625 -10.28125 Z M 26.046875 0 L 23.140625 0 C 22.804688 0 22.535156 -0.0820312 22.328125 -0.25 C 22.128906 -0.414062 21.976562 -0.628906 21.875 -0.890625 L 19.28125 -7.578125 L 6.859375 -7.578125 L 4.265625 -0.890625 C 4.191406 -0.660156 4.046875 -0.453125 3.828125 -0.265625 C 3.609375 -0.0859375 3.335938 0 3.015625 0 L 0.109375 0 L 11.1875 -27.6875 L 14.96875 -27.6875 Z M 26.046875 0 "/></g></g></g></svg>