<svg xmlns="http://www.w3.org/2000/svg" xmlns:xlink="http://www.w3.org/1999/xlink" width="500" zoomAndPan="magnify" viewBox="0 0 375 374.999991" height="500" preserveAspectRatio="xMidYMid meet" version="1.0"><path fill="rgb(90.19928%, 41.178894%, 53.329468%)" d="M 57.242188 284.851562 L 72.976562 257.601562 L 88.707031 284.851562 Z M 57.242188 284.851562 " fill-opacity="1" fill-rule="nonzero"/><path fill="rgb(90.19928%, 41.178894%, 53.329468%)" d="M 98.855469 218.726562 C 92.902344 212.671875 79.816406 215.882812 69.625 225.902344 C 59.433594 235.917969 55.996094 248.949219 61.949219 255.003906 C 67.902344 261.0625 80.988281 257.847656 91.179688 247.832031 C 101.371094 237.8125 104.808594 224.785156 98.855469 218.726562 " fill-opacity="1" fill-rule="nonzero"/><path fill="rgb(90.19928%, 41.178894%, 53.329468%)" d="M 71.96875 226.792969 L 86.46875 251.328125 L 61.933594 265.828125 L 71.96875 226.792969 " fill-opacity="1" fill-rule="nonzero"/><path fill="rgb(90.19928%, 41.178894%, 53.329468%)" d="M 66.890625 209.988281 L 66.890625 210.027344 L 32.808594 242.988281 L 66.914062 242.988281 L 101.042969 209.988281 L 66.890625 209.988281 " fill-opacity="1" fill-rule="nonzero"/><path fill="rgb(90.19928%, 41.178894%, 53.329468%)" d="M 65.832031 211.964844 C 65.789062 212 65.75 212.019531 65.699219 212.0625 L 58.984375 217.820312 C 57.230469 219.324219 56.941406 221.890625 58.34375 223.527344 L 74.257812 242.082031 C 75.660156 243.71875 78.25 243.828125 80.003906 242.328125 L 86.71875 236.566406 C 88.46875 235.0625 88.761719 232.496094 87.359375 230.859375 L 71.441406 212.304688 C 70.824219 211.585938 69.976562 211.160156 69.082031 211.042969 C 68.832031 209.8125 68.039062 207.035156 64.796875 205.980469 C 64.789062 205.96875 66.507812 207.953125 65.832031 211.964844 " fill-opacity="1" fill-rule="nonzero"/><path fill="rgb(90.19928%, 41.178894%, 53.329468%)" d="M 67 212.660156 L 101.472656 212.660156 L 101.472656 226.160156 L 67 226.160156 L 67 212.660156 " fill-opacity="1" fill-rule="nonzero"/><path fill="rgb(90.19928%, 41.178894%, 53.329468%)" d="M 90.023438 215.164062 L 120.015625 205.566406 L 123.902344 217.707031 L 93.910156 227.308594 L 90.023438 215.164062 " fill-opacity="1" fill-rule="nonzero"/><path fill="rgb(90.19928%, 41.178894%, 53.329468%)" d="M 101.703125 209.988281 L 95.183594 209.988281 L 90.570312 214.703125 L 90.570312 218.023438 L 95.183594 222.738281 L 101.703125 222.738281 L 106.3125 218.023438 L 106.3125 214.703125 L 101.703125 209.988281 " fill-opacity="1" fill-rule="nonzero"/><path fill="rgb(90.19928%, 41.178894%, 53.329468%)" d="M 105.09375 193.429688 L 120.332031 207.882812 L 112.074219 216.585938 L 96.839844 202.132812 L 105.09375 193.429688 " fill-opacity="1" fill-rule="nonzero"/><path fill="rgb(90.19928%, 41.178894%, 53.329468%)" d="M 120.390625 208.191406 L 132.382812 180.289062 L 105.15625 193.738281 L 120.390625 208.191406 " fill-opacity="1" fill-rule="nonzero"/><path fill="rgb(90.19928%, 41.178894%, 53.329468%)" d="M 30.792969 257.574219 L 53.0625 235.304688 L 75.335938 257.578125 L 30.792969 257.574219 " fill-opacity="1" fill-rule="nonzero"/><path fill="rgb(90.19928%, 41.178894%, 53.329468%)" d="M 152.609375 150.175781 L 184.109375 150.175781 L 184.109375 285.171875 L 152.609375 285.171875 L 152.609375 150.175781 " fill-opacity="1" fill-rule="nonzero"/><path fill="rgb(90.19928%, 41.178894%, 53.329468%)" d="M 204.3125 107.417969 L 235.8125 107.417969 L 235.8125 285.160156 L 204.3125 285.160156 L 204.3125 107.417969 " fill-opacity="1" fill-rule="nonzero"/><path fill="rgb(90.19928%, 41.178894%, 53.329468%)" d="M 254.265625 159.257812 L 285.765625 159.257812 L 285.765625 284.503906 L 254.265625 284.503906 L 254.265625 159.257812 " fill-opacity="1" fill-rule="nonzero"/><path stroke-linecap="butt" transform="matrix(0.000000000000000138, -2.253011, 2.25, 0.000000000000000138, 19.105211, 284.847286)" fill="none" stroke-linejoin="miter" d="M -0.000164293 0.000114375 L 101.20122 0.000114375 " stroke="rgb(98.81897%, 100%, 100%)" stroke-width="1" stroke-opacity="1" stroke-miterlimit="4"/><path stroke-linecap="butt" transform="matrix(-2.250991, -0.000000000000000276, 0.000000000000000276, -2.25, 337.495206, 285.976563)" fill="none" stroke-linejoin="miter" d="M -0.000394232 0.00000014261 L 141.938845 0.00000014261 " stroke="rgb(98.81897%, 100%, 100%)" stroke-width="1" stroke-opacity="1" stroke-miterlimit="4"/><path fill="rgb(98.81897%, 100%, 100%)" d="M 20.457031 97.441406 L 21.207031 97.445312 L 21.207031 98.195312 L 20.457031 98.191406 M 21.957031 97.445312 L 22.707031 97.445312 L 22.707031 98.195312 L 21.957031 98.195312 M 23.457031 97.445312 L 24.207031 97.449219 L 24.207031 98.199219 L 23.457031 98.195312 M 24.957031 97.449219 L 25.710938 97.449219 L 25.707031 98.199219 L 24.957031 98.199219 M 26.460938 97.449219 L 27.210938 97.449219 L 27.210938 98.199219 L 26.460938 98.199219 M 27.960938 97.453125 L 28.710938 97.453125 L 28.710938 98.203125 L 27.960938 98.203125 M 29.460938 97.453125 L 30.210938 97.453125 L 30.210938 98.203125 L 29.460938 98.203125 M 30.964844 97.457031 L 31.714844 97.457031 L 31.710938 98.207031 L 30.960938 98.207031 M 32.464844 97.457031 L 33.214844 97.457031 L 33.214844 98.207031 L 32.464844 98.207031 M 33.964844 97.457031 L 34.714844 97.460938 L 34.714844 98.210938 L 33.964844 98.207031 M 35.464844 97.460938 L 36.214844 97.460938 L 36.214844 98.210938 L 35.464844 98.210938 M 36.96875 97.460938 L 37.71875 97.464844 L 37.714844 98.214844 L 36.964844 98.210938 M 38.46875 97.464844 L 39.21875 97.464844 L 39.21875 98.214844 L 38.46875 98.214844 M 39.96875 97.464844 L 40.71875 97.46875 L 40.71875 98.21875 L 39.96875 98.214844 M 41.46875 97.46875 L 42.21875 97.46875 L 42.21875 98.21875 L 41.46875 98.21875 M 42.972656 97.46875 L 43.722656 97.46875 L 43.71875 98.21875 L 42.96875 98.21875 M 44.472656 97.472656 L 45.222656 97.472656 L 45.222656 98.222656 L 44.472656 98.222656 M 45.972656 97.472656 L 46.722656 97.472656 L 46.722656 98.222656 L 45.972656 98.222656 M 47.472656 97.476562 L 48.222656 97.476562 L 48.222656 98.226562 L 47.472656 98.226562 M 48.976562 97.476562 L 49.726562 97.476562 L 49.722656 98.226562 L 48.972656 98.226562 M 50.476562 97.476562 L 51.226562 97.480469 L 51.226562 98.230469 L 50.476562 98.226562 M 51.976562 97.480469 L 52.726562 97.480469 L 52.726562 98.230469 L 51.976562 98.230469 M 53.476562 97.480469 L 54.226562 97.484375 L 54.226562 98.234375 L 53.476562 98.230469 M 54.980469 97.484375 L 55.730469 97.484375 L 55.730469 98.234375 L 54.976562 98.234375 M 56.480469 97.484375 L 57.230469 97.488281 L 57.230469 98.238281 L 56.480469 98.234375 M 57.980469 97.488281 L 58.730469 97.488281 L 58.730469 98.238281 L 57.980469 98.238281 M 59.480469 97.488281 L 60.230469 97.488281 L 60.230469 98.238281 L 59.480469 98.238281 M 60.984375 97.492188 L 61.734375 97.492188 L 61.734375 98.242188 L 60.980469 98.242188 M 62.484375 97.492188 L 63.234375 97.492188 L 63.234375 98.242188 L 62.484375 98.242188 M 63.984375 97.496094 L 64.734375 97.496094 L 64.734375 98.246094 L 63.984375 98.246094 M 65.484375 97.496094 L 66.238281 97.496094 L 66.234375 98.246094 L 65.484375 98.246094 M 66.988281 97.496094 L 67.738281 97.5 L 67.738281 98.25 L 66.984375 98.246094 M 68.488281 97.5 L 69.238281 97.5 L 69.238281 98.25 L 68.488281 98.25 M 69.988281 97.5 L 70.738281 97.503906 L 70.738281 98.253906 L 69.988281 98.25 M 71.488281 97.503906 L 72.242188 97.503906 L 72.238281 98.253906 L 71.488281 98.253906 M 72.992188 97.503906 L 73.742188 97.507812 L 73.742188 98.257812 L 72.988281 98.253906 M 74.492188 97.507812 L 75.242188 97.507812 L 75.242188 98.257812 L 74.492188 98.257812 M 75.992188 97.507812 L 76.742188 97.507812 L 76.742188 98.257812 L 75.992188 98.257812 M 77.492188 97.511719 L 78.246094 97.511719 L 78.242188 98.261719 L 77.492188 98.261719 M 78.996094 97.511719 L 79.746094 97.511719 L 79.746094 98.261719 L 78.992188 98.261719 M 80.496094 97.515625 L 81.246094 97.515625 L 81.246094 98.265625 L 80.496094 98.265625 M 81.996094 97.515625 L 82.746094 97.515625 L 82.746094 98.265625 L 81.996094 98.265625 M 83.496094 97.515625 L 84.25 97.519531 L 84.246094 98.269531 L 83.496094 98.265625 M 85 97.519531 L 85.75 97.519531 L 85.75 98.269531 L 84.996094 98.269531 M 86.5 97.519531 L 87.25 97.523438 L 87.25 98.273438 L 86.5 98.269531 M 88 97.523438 L 88.75 97.523438 L 88.75 98.273438 L 88 98.273438 M 89.5 97.523438 L 90.253906 97.527344 L 90.25 98.277344 L 89.5 98.273438 M 91.003906 97.527344 L 91.753906 97.527344 L 91.753906 98.277344 L 91 98.277344 M 92.503906 97.527344 L 93.253906 97.527344 L 93.253906 98.277344 L 92.503906 98.277344 M 94.003906 97.53125 L 94.753906 97.53125 L 94.753906 98.28125 L 94.003906 98.28125 M 95.503906 97.53125 L 96.257812 97.53125 L 96.253906 98.28125 L 95.503906 98.28125 M 97.007812 97.535156 L 97.757812 97.535156 L 97.757812 98.285156 L 97.007812 98.285156 M 98.507812 97.535156 L 99.257812 97.535156 L 99.257812 98.285156 L 98.507812 98.285156 M 100.007812 97.535156 L 100.757812 97.539062 L 100.757812 98.289062 L 100.007812 98.285156 M 101.511719 97.539062 L 102.261719 97.539062 L 102.257812 98.289062 L 101.507812 98.289062 M 103.011719 97.539062 L 103.761719 97.542969 L 103.761719 98.292969 L 103.011719 98.289062 M 104.511719 97.542969 L 105.261719 97.542969 L 105.261719 98.292969 L 104.511719 98.292969 M 106.011719 97.542969 L 106.761719 97.546875 L 106.761719 98.296875 L 106.011719 98.292969 M 107.515625 97.546875 L 108.265625 97.546875 L 108.261719 98.296875 L 107.511719 98.296875 M 109.015625 97.546875 L 109.765625 97.546875 L 109.765625 98.296875 L 109.015625 98.296875 M 110.515625 97.550781 L 111.265625 97.550781 L 111.265625 98.300781 L 110.515625 98.300781 M 112.015625 97.550781 L 112.765625 97.550781 L 112.765625 98.300781 L 112.015625 98.300781 M 113.519531 97.554688 L 114.269531 97.554688 L 114.265625 98.304688 L 113.515625 98.304688 M 115.019531 97.554688 L 115.769531 97.554688 L 115.769531 98.304688 L 115.019531 98.304688 M 116.519531 97.554688 L 117.269531 97.558594 L 117.269531 98.308594 L 116.519531 98.304688 M 118.019531 97.558594 L 118.769531 97.558594 L 118.769531 98.308594 L 118.019531 98.308594 M 119.523438 97.558594 L 120.273438 97.5625 L 120.269531 98.3125 L 119.519531 98.308594 M 121.023438 97.5625 L 121.773438 97.5625 L 121.773438 98.3125 L 121.023438 98.3125 M 122.523438 97.5625 L 123.273438 97.566406 L 123.273438 98.316406 L 122.523438 98.3125 M 124.023438 97.566406 L 124.773438 97.566406 L 124.773438 98.316406 L 124.023438 98.316406 M 125.527344 97.566406 L 126.277344 97.566406 L 126.273438 98.316406 L 125.523438 98.316406 M 127.027344 97.570312 L 127.777344 97.570312 L 127.777344 98.320312 L 127.027344 98.320312 M 128.527344 97.570312 L 129.277344 97.570312 L 129.277344 98.320312 L 128.527344 98.320312 M 130.027344 97.574219 L 130.777344 97.574219 L 130.777344 98.324219 L 130.027344 98.324219 M 131.53125 97.574219 L 132.28125 97.574219 L 132.28125 98.324219 L 131.527344 98.324219 M 133.03125 97.574219 L 133.78125 97.578125 L 133.78125 98.328125 L 133.03125 98.324219 M 134.53125 97.578125 L 135.28125 97.578125 L 135.28125 98.328125 L 134.53125 98.328125 M 136.03125 97.578125 L 136.785156 97.582031 L 136.78125 98.332031 L 136.03125 98.328125 M 137.535156 97.582031 L 138.285156 97.582031 L 138.285156 98.332031 L 137.53125 98.332031 M 139.035156 97.582031 L 139.785156 97.585938 L 139.785156 98.335938 L 139.035156 98.332031 M 140.535156 97.585938 L 141.285156 97.585938 L 141.285156 98.335938 L 140.535156 98.335938 M 142.035156 97.585938 L 142.789062 97.585938 L 142.785156 98.335938 L 142.035156 98.335938 M 143.539062 97.589844 L 144.289062 97.589844 L 144.289062 98.339844 L 143.535156 98.339844 M 145.039062 97.589844 L 145.789062 97.589844 L 145.789062 98.339844 L 145.039062 98.339844 M 146.539062 97.59375 L 147.289062 97.59375 L 147.289062 98.34375 L 146.539062 98.34375 M 148.039062 97.59375 L 148.792969 97.59375 L 148.789062 98.34375 L 148.039062 98.34375 M 149.542969 97.59375 L 150.292969 97.597656 L 150.292969 98.347656 L 149.539062 98.34375 M 151.042969 97.597656 L 151.792969 97.597656 L 151.792969 98.347656 L 151.042969 98.347656 M 152.542969 97.597656 L 153.292969 97.601562 L 153.292969 98.351562 L 152.542969 98.347656 M 154.042969 97.601562 L 154.796875 97.601562 L 154.792969 98.351562 L 154.042969 98.351562 M 155.546875 97.601562 L 156.296875 97.605469 L 156.296875 98.355469 L 155.542969 98.351562 M 157.046875 97.605469 L 157.796875 97.605469 L 157.796875 98.355469 L 157.046875 98.355469 M 158.546875 97.605469 L 159.296875 97.605469 L 159.296875 98.355469 L 158.546875 98.355469 M 160.046875 97.609375 L 160.800781 97.609375 L 160.796875 98.359375 L 160.046875 98.359375 M 161.550781 97.609375 L 162.300781 97.609375 L 162.300781 98.359375 L 161.546875 98.359375 M 163.050781 97.613281 L 163.800781 97.613281 L 163.800781 98.363281 L 163.050781 98.363281 M 164.550781 97.613281 L 165.300781 97.613281 L 165.300781 98.363281 L 164.550781 98.363281 M 166.050781 97.613281 L 166.804688 97.617188 L 166.800781 98.367188 L 166.050781 98.363281 M 167.554688 97.617188 L 168.304688 97.617188 L 168.304688 98.367188 L 167.554688 98.367188 M 169.054688 97.617188 L 169.804688 97.621094 L 169.804688 98.371094 L 169.054688 98.367188 M 170.554688 97.621094 L 171.304688 97.621094 L 171.304688 98.371094 L 170.554688 98.371094 M 172.058594 97.621094 L 172.808594 97.625 L 172.804688 98.375 L 172.054688 98.371094 M 173.558594 97.625 L 174.308594 97.625 L 174.308594 98.375 L 173.558594 98.375 M 175.058594 97.625 L 175.808594 97.625 L 175.808594 98.375 L 175.058594 98.375 M 176.558594 97.628906 L 177.308594 97.628906 L 177.308594 98.378906 L 176.558594 98.378906 M 178.0625 97.628906 L 178.8125 97.628906 L 178.808594 98.378906 L 178.058594 98.378906 M 179.5625 97.632812 L 180.3125 97.632812 L 180.3125 98.382812 L 179.5625 98.382812 M 181.0625 97.632812 L 181.8125 97.632812 L 181.8125 98.382812 L 181.0625 98.382812 M 182.5625 97.632812 L 183.3125 97.636719 L 183.3125 98.386719 L 182.5625 98.382812 M 184.066406 97.636719 L 184.816406 97.636719 L 184.8125 98.386719 L 184.0625 98.386719 M 185.566406 97.636719 L 186.316406 97.640625 L 186.316406 98.390625 L 185.566406 98.386719 M 187.066406 97.640625 L 187.816406 97.640625 L 187.816406 98.390625 L 187.066406 98.390625 M 188.566406 97.640625 L 189.316406 97.644531 L 189.316406 98.394531 L 188.566406 98.390625 M 190.070312 97.644531 L 190.820312 97.644531 L 190.816406 98.394531 L 190.066406 98.394531 M 191.570312 97.644531 L 192.320312 97.644531 L 192.320312 98.394531 L 191.570312 98.394531 M 193.070312 97.648438 L 193.820312 97.648438 L 193.820312 98.398438 L 193.070312 98.398438 M 194.570312 97.648438 L 195.320312 97.648438 L 195.320312 98.398438 L 194.570312 98.398438 M 196.074219 97.652344 L 196.824219 97.652344 L 196.820312 98.402344 L 196.070312 98.402344 M 197.574219 97.652344 L 198.324219 97.652344 L 198.324219 98.402344 L 197.574219 98.402344 M 199.074219 97.652344 L 199.824219 97.65625 L 199.824219 98.40625 L 199.074219 98.402344 M 200.574219 97.65625 L 201.324219 97.65625 L 201.324219 98.40625 L 200.574219 98.40625 M 202.078125 97.65625 L 202.828125 97.660156 L 202.828125 98.410156 L 202.074219 98.40625 M 203.578125 97.660156 L 204.328125 97.660156 L 204.328125 98.410156 L 203.578125 98.410156 M 205.078125 97.660156 L 205.828125 97.660156 L 205.828125 98.410156 L 205.078125 98.410156 M 206.578125 97.664062 L 207.332031 97.664062 L 207.328125 98.414062 L 206.578125 98.414062 M 208.082031 97.664062 L 208.832031 97.664062 L 208.832031 98.414062 L 208.078125 98.414062 M 209.582031 97.667969 L 210.332031 97.667969 L 210.332031 98.417969 L 209.582031 98.417969 M 211.082031 97.667969 L 211.832031 97.667969 L 211.832031 98.417969 L 211.082031 98.417969 M 212.582031 97.671875 L 213.335938 97.671875 L 213.332031 98.421875 L 212.582031 98.421875 M 214.085938 97.671875 L 214.835938 97.671875 L 214.835938 98.421875 L 214.082031 98.421875 M 215.585938 97.671875 L 216.335938 97.675781 L 216.335938 98.425781 L 215.585938 98.421875 M 217.085938 97.675781 L 217.835938 97.675781 L 217.835938 98.425781 L 217.085938 98.425781 M 218.585938 97.675781 L 219.339844 97.679688 L 219.335938 98.429688 L 218.585938 98.425781 M 220.089844 97.679688 L 220.839844 97.679688 L 220.839844 98.429688 L 220.085938 98.429688 M 221.589844 97.679688 L 222.339844 97.679688 L 222.339844 98.429688 L 221.589844 98.429688 M 223.089844 97.683594 L 223.839844 97.683594 L 223.839844 98.433594 L 223.089844 98.433594 M 224.589844 97.683594 L 225.34375 97.683594 L 225.339844 98.433594 L 224.589844 98.433594 M 226.09375 97.6875 L 226.84375 97.6875 L 226.84375 98.4375 L 226.089844 98.4375 M 227.59375 97.6875 L 228.34375 97.6875 L 228.34375 98.4375 L 227.59375 98.4375 M 229.09375 97.691406 L 229.84375 97.691406 L 229.84375 98.441406 L 229.09375 98.441406 M 230.59375 97.691406 L 231.347656 97.691406 L 231.34375 98.441406 L 230.59375 98.441406 M 232.097656 97.691406 L 232.847656 97.695312 L 232.847656 98.445312 L 232.09375 98.441406 M 233.597656 97.695312 L 234.347656 97.695312 L 234.347656 98.445312 L 233.597656 98.445312 M 235.097656 97.695312 L 235.847656 97.699219 L 235.847656 98.449219 L 235.097656 98.445312 M 236.597656 97.699219 L 237.351562 97.699219 L 237.347656 98.449219 L 236.597656 98.449219 M 238.101562 97.699219 L 238.851562 97.699219 L 238.851562 98.449219 L 238.101562 98.449219 M 239.601562 97.703125 L 240.351562 97.703125 L 240.351562 98.453125 L 239.601562 98.453125 M 241.101562 97.703125 L 241.851562 97.703125 L 241.851562 98.453125 L 241.101562 98.453125 M 242.601562 97.707031 L 243.355469 97.707031 L 243.351562 98.457031 L 242.601562 98.457031 M 244.105469 97.707031 L 244.855469 97.707031 L 244.855469 98.457031 L 244.105469 98.457031 M 245.605469 97.710938 L 246.355469 97.710938 L 246.355469 98.460938 L 245.605469 98.460938 M 247.105469 97.710938 L 247.855469 97.710938 L 247.855469 98.460938 L 247.105469 98.460938 M 248.609375 97.710938 L 249.359375 97.714844 L 249.355469 98.464844 L 248.605469 98.460938 M 250.109375 97.714844 L 250.859375 97.714844 L 250.859375 98.464844 L 250.109375 98.464844 M 251.609375 97.714844 L 252.359375 97.71875 L 252.359375 98.46875 L 251.609375 98.464844 M 253.109375 97.71875 L 253.859375 97.71875 L 253.859375 98.46875 L 253.109375 98.46875 M 254.613281 97.71875 L 255.363281 97.71875 L 255.359375 98.46875 L 254.609375 98.46875 M 256.113281 97.722656 L 256.863281 97.722656 L 256.863281 98.472656 L 256.113281 98.472656 M 257.613281 97.722656 L 258.363281 97.722656 L 258.363281 98.472656 L 257.613281 98.472656 M 259.113281 97.726562 L 259.863281 97.726562 L 259.863281 98.476562 L 259.113281 98.476562 M 260.617188 97.726562 L 261.367188 97.726562 L 261.363281 98.476562 L 260.613281 98.476562 M 262.117188 97.730469 L 262.867188 97.730469 L 262.867188 98.480469 L 262.117188 98.480469 M 263.617188 97.730469 L 264.367188 97.730469 L 264.367188 98.480469 L 263.617188 98.480469 M 265.117188 97.730469 L 265.867188 97.734375 L 265.867188 98.484375 L 265.117188 98.480469 M 266.621094 97.734375 L 267.371094 97.734375 L 267.367188 98.484375 L 266.617188 98.484375 M 268.121094 97.734375 L 268.871094 97.738281 L 268.871094 98.488281 L 268.121094 98.484375 M 269.621094 97.738281 L 270.371094 97.738281 L 270.371094 98.488281 L 269.621094 98.488281 M 271.121094 97.738281 L 271.871094 97.738281 L 271.871094 98.488281 L 271.121094 98.488281 M 272.625 97.742188 L 273.375 97.742188 L 273.375 98.492188 L 272.621094 98.492188 M 274.125 97.742188 L 274.875 97.742188 L 274.875 98.492188 L 274.125 98.492188 M 275.625 97.746094 L 276.375 97.746094 L 276.375 98.496094 L 275.625 98.496094 M 277.125 97.746094 L 277.875 97.746094 L 277.875 98.496094 L 277.125 98.496094 M 278.628906 97.75 L 279.378906 97.75 L 279.378906 98.5 L 278.625 98.5 M 280.128906 97.75 L 280.878906 97.75 L 280.878906 98.5 L 280.128906 98.5 M 281.628906 97.75 L 282.378906 97.753906 L 282.378906 98.503906 L 281.628906 98.5 M 283.128906 97.753906 L 283.882812 97.753906 L 283.878906 98.503906 L 283.128906 98.503906 M 284.632812 97.753906 L 285.382812 97.757812 L 285.382812 98.507812 L 284.628906 98.503906 M 286.132812 97.757812 L 286.882812 97.757812 L 286.882812 98.507812 L 286.132812 98.507812 M 287.632812 97.757812 L 288.382812 97.757812 L 288.382812 98.507812 L 287.632812 98.507812 M 289.132812 97.761719 L 289.886719 97.761719 L 289.882812 98.511719 L 289.132812 98.511719 M 290.636719 97.761719 L 291.386719 97.761719 L 291.386719 98.511719 L 290.632812 98.511719 M 292.136719 97.765625 L 292.886719 97.765625 L 292.886719 98.515625 L 292.136719 98.515625 M 293.636719 97.765625 L 294.386719 97.765625 L 294.386719 98.515625 L 293.636719 98.515625 M 295.136719 97.769531 L 295.890625 97.769531 L 295.886719 98.519531 L 295.136719 98.519531 M 296.640625 97.769531 L 297.390625 97.769531 L 297.390625 98.519531 L 296.636719 98.519531 M 298.140625 97.769531 L 298.890625 97.773438 L 298.890625 98.523438 L 298.140625 98.519531 M 299.640625 97.773438 L 300.390625 97.773438 L 300.390625 98.523438 L 299.640625 98.523438 M 301.140625 97.773438 L 301.894531 97.777344 L 301.890625 98.527344 L 301.140625 98.523438 M 302.644531 97.777344 L 303.394531 97.777344 L 303.394531 98.527344 L 302.640625 98.527344 M 304.144531 97.777344 L 304.894531 97.777344 L 304.894531 98.527344 L 304.144531 98.527344 M 305.644531 97.78125 L 306.394531 97.78125 L 306.394531 98.53125 L 305.644531 98.53125 M 307.144531 97.78125 L 307.898438 97.78125 L 307.894531 98.53125 L 307.144531 98.53125 M 308.648438 97.785156 L 309.398438 97.785156 L 309.398438 98.535156 L 308.644531 98.535156 M 310.148438 97.785156 L 310.898438 97.785156 L 310.898438 98.535156 L 310.148438 98.535156 M 311.648438 97.789062 L 312.398438 97.789062 L 312.398438 98.539062 L 311.648438 98.539062 M 313.148438 97.789062 L 313.902344 97.789062 L 313.898438 98.539062 L 313.148438 98.539062 M 314.652344 97.789062 L 315.402344 97.792969 L 315.402344 98.542969 L 314.652344 98.539062 M 316.152344 97.792969 L 316.902344 97.792969 L 316.902344 98.542969 L 316.152344 98.542969 M 317.652344 97.792969 L 318.402344 97.796875 L 318.402344 98.546875 L 317.652344 98.542969 M 319.15625 97.796875 L 319.90625 97.796875 L 319.902344 98.546875 L 319.152344 98.546875 M 320.65625 97.796875 L 321.40625 97.796875 L 321.40625 98.546875 L 320.65625 98.546875 M 322.15625 97.800781 L 322.90625 97.800781 L 322.90625 98.550781 L 322.15625 98.550781 M 323.65625 97.800781 L 324.40625 97.800781 L 324.40625 98.550781 L 323.65625 98.550781 M 325.160156 97.804688 L 325.910156 97.804688 L 325.90625 98.554688 L 325.15625 98.554688 M 326.660156 97.804688 L 327.410156 97.804688 L 327.410156 98.554688 L 326.660156 98.554688 M 328.160156 97.808594 L 328.910156 97.808594 L 328.910156 98.558594 L 328.160156 98.558594 M 329.660156 97.808594 L 330.410156 97.808594 L 330.410156 98.558594 L 329.660156 98.558594 M 331.164062 97.808594 L 331.914062 97.8125 L 331.910156 98.5625 L 331.160156 98.558594 M 332.664062 97.8125 L 333.414062 97.8125 L 333.414062 98.5625 L 332.664062 98.5625 M 334.164062 97.8125 L 334.914062 97.816406 L 334.914062 98.566406 L 334.164062 98.5625 M 335.664062 97.816406 L 336.414062 97.816406 L 336.414062 98.566406 L 335.664062 98.566406 M 337.167969 97.816406 L 337.710938 97.816406 L 337.710938 98.566406 L 337.164062 98.566406 " fill-opacity="1" fill-rule="nonzero"/><path fill="rgb(98.81897%, 100%, 100%)" d="M 19.109375 158.128906 L 19.859375 158.128906 L 19.859375 158.878906 L 19.109375 158.878906 M 20.613281 158.132812 L 21.363281 158.132812 L 21.359375 158.882812 L 20.609375 158.882812 M 22.113281 158.132812 L 22.863281 158.132812 L 22.863281 158.882812 L 22.113281 158.882812 M 23.613281 158.136719 L 24.363281 158.136719 L 24.363281 158.886719 L 23.613281 158.886719 M 25.113281 158.136719 L 25.863281 158.136719 L 25.863281 158.886719 L 25.113281 158.886719 M 26.617188 158.140625 L 27.367188 158.140625 L 27.363281 158.890625 L 26.613281 158.890625 M 28.117188 158.140625 L 28.867188 158.140625 L 28.867188 158.890625 L 28.117188 158.890625 M 29.617188 158.140625 L 30.367188 158.144531 L 30.367188 158.894531 L 29.617188 158.890625 M 31.117188 158.144531 L 31.867188 158.144531 L 31.867188 158.894531 L 31.117188 158.894531 M 32.621094 158.144531 L 33.371094 158.148438 L 33.367188 158.898438 L 32.617188 158.894531 M 34.121094 158.148438 L 34.871094 158.148438 L 34.871094 158.898438 L 34.121094 158.898438 M 35.621094 158.148438 L 36.371094 158.148438 L 36.371094 158.898438 L 35.621094 158.898438 M 37.121094 158.152344 L 37.871094 158.152344 L 37.871094 158.902344 L 37.121094 158.902344 M 38.625 158.152344 L 39.375 158.152344 L 39.371094 158.902344 L 38.621094 158.902344 M 40.125 158.15625 L 40.875 158.15625 L 40.875 158.90625 L 40.125 158.90625 M 41.625 158.15625 L 42.375 158.15625 L 42.375 158.90625 L 41.625 158.90625 M 43.125 158.160156 L 43.875 158.160156 L 43.875 158.910156 L 43.125 158.910156 M 44.628906 158.160156 L 45.378906 158.160156 L 45.375 158.910156 L 44.625 158.910156 M 46.128906 158.160156 L 46.878906 158.164062 L 46.878906 158.914062 L 46.128906 158.910156 M 47.628906 158.164062 L 48.378906 158.164062 L 48.378906 158.914062 L 47.628906 158.914062 M 49.128906 158.164062 L 49.878906 158.167969 L 49.878906 158.917969 L 49.128906 158.914062 M 50.632812 158.167969 L 51.382812 158.167969 L 51.382812 158.917969 L 50.628906 158.917969 M 52.132812 158.167969 L 52.882812 158.167969 L 52.882812 158.917969 L 52.132812 158.917969 M 53.632812 158.171875 L 54.382812 158.171875 L 54.382812 158.921875 L 53.632812 158.921875 M 55.132812 158.171875 L 55.886719 158.171875 L 55.882812 158.921875 L 55.132812 158.921875 M 56.636719 158.175781 L 57.386719 158.175781 L 57.386719 158.925781 L 56.632812 158.925781 M 58.136719 158.175781 L 58.886719 158.175781 L 58.886719 158.925781 L 58.136719 158.925781 M 59.636719 158.179688 L 60.386719 158.179688 L 60.386719 158.929688 L 59.636719 158.929688 M 61.136719 158.179688 L 61.890625 158.179688 L 61.886719 158.929688 L 61.136719 158.929688 M 62.640625 158.179688 L 63.390625 158.183594 L 63.390625 158.933594 L 62.636719 158.929688 M 64.140625 158.183594 L 64.890625 158.183594 L 64.890625 158.933594 L 64.140625 158.933594 M 65.640625 158.183594 L 66.390625 158.1875 L 66.390625 158.9375 L 65.640625 158.933594 M 67.140625 158.1875 L 67.894531 158.1875 L 67.890625 158.9375 L 67.140625 158.9375 M 68.644531 158.1875 L 69.394531 158.1875 L 69.394531 158.9375 L 68.640625 158.9375 M 70.144531 158.191406 L 70.894531 158.191406 L 70.894531 158.941406 L 70.144531 158.941406 M 71.644531 158.191406 L 72.394531 158.191406 L 72.394531 158.941406 L 71.644531 158.941406 M 73.144531 158.195312 L 73.898438 158.195312 L 73.894531 158.945312 L 73.144531 158.945312 M 74.648438 158.195312 L 75.398438 158.195312 L 75.398438 158.945312 L 74.644531 158.945312 M 76.148438 158.199219 L 76.898438 158.199219 L 76.898438 158.949219 L 76.148438 158.949219 M 77.648438 158.199219 L 78.398438 158.199219 L 78.398438 158.949219 L 77.648438 158.949219 M 79.148438 158.199219 L 79.902344 158.203125 L 79.898438 158.953125 L 79.148438 158.949219 M 80.652344 158.203125 L 81.402344 158.203125 L 81.402344 158.953125 L 80.648438 158.953125 M 82.152344 158.203125 L 82.902344 158.207031 L 82.902344 158.957031 L 82.152344 158.953125 M 83.652344 158.207031 L 84.402344 158.207031 L 84.402344 158.957031 L 83.652344 158.957031 M 85.152344 158.207031 L 85.90625 158.207031 L 85.902344 158.957031 L 85.152344 158.957031 M 86.65625 158.210938 L 87.40625 158.210938 L 87.40625 158.960938 L 86.65625 158.960938 M 88.15625 158.210938 L 88.90625 158.210938 L 88.90625 158.960938 L 88.15625 158.960938 M 89.65625 158.214844 L 90.40625 158.214844 L 90.40625 158.964844 L 89.65625 158.964844 M 91.160156 158.214844 L 91.910156 158.214844 L 91.90625 158.964844 L 91.15625 158.964844 M 92.660156 158.21875 L 93.410156 158.21875 L 93.410156 158.96875 L 92.660156 158.96875 M 94.160156 158.21875 L 94.910156 158.21875 L 94.910156 158.96875 L 94.160156 158.96875 M 95.660156 158.21875 L 96.410156 158.222656 L 96.410156 158.972656 L 95.660156 158.96875 M 97.164062 158.222656 L 97.914062 158.222656 L 97.910156 158.972656 L 97.160156 158.972656 M 98.664062 158.222656 L 99.414062 158.226562 L 99.414062 158.976562 L 98.664062 158.972656 M 100.164062 158.226562 L 100.914062 158.226562 L 100.914062 158.976562 L 100.164062 158.976562 M 101.664062 158.226562 L 102.414062 158.226562 L 102.414062 158.976562 L 101.664062 158.976562 M 103.167969 158.230469 L 103.917969 158.230469 L 103.914062 158.980469 L 103.164062 158.980469 M 104.667969 158.230469 L 105.417969 158.230469 L 105.417969 158.980469 L 104.667969 158.980469 M 106.167969 158.234375 L 106.917969 158.234375 L 106.917969 158.984375 L 106.167969 158.984375 M 107.667969 158.234375 L 108.417969 158.234375 L 108.417969 158.984375 L 107.667969 158.984375 M 109.171875 158.238281 L 109.921875 158.238281 L 109.917969 158.988281 L 109.167969 158.988281 M 110.671875 158.238281 L 111.421875 158.238281 L 111.421875 158.988281 L 110.671875 158.988281 M 112.171875 158.238281 L 112.921875 158.242188 L 112.921875 158.992188 L 112.171875 158.988281 M 113.671875 158.242188 L 114.421875 158.242188 L 114.421875 158.992188 L 113.671875 158.992188 M 115.175781 158.242188 L 115.925781 158.246094 L 115.921875 158.996094 L 115.171875 158.992188 M 116.675781 158.246094 L 117.425781 158.246094 L 117.425781 158.996094 L 116.675781 158.996094 M 118.175781 158.246094 L 118.925781 158.246094 L 118.925781 158.996094 L 118.175781 158.996094 M 119.675781 158.25 L 120.425781 158.25 L 120.425781 159 L 119.675781 159 M 121.179688 158.25 L 121.929688 158.25 L 121.929688 159 L 121.175781 159 M 122.679688 158.253906 L 123.429688 158.253906 L 123.429688 159.003906 L 122.679688 159.003906 M 124.179688 158.253906 L 124.929688 158.253906 L 124.929688 159.003906 L 124.179688 159.003906 M 125.679688 158.257812 L 126.433594 158.257812 L 126.429688 159.007812 L 125.679688 159.007812 M 127.183594 158.257812 L 127.933594 158.257812 L 127.933594 159.007812 L 127.179688 159.007812 M 128.683594 158.257812 L 129.433594 158.261719 L 129.433594 159.011719 L 128.683594 159.007812 M 130.183594 158.261719 L 130.933594 158.261719 L 130.933594 159.011719 L 130.183594 159.011719 M 131.683594 158.261719 L 132.4375 158.265625 L 132.433594 159.015625 L 131.683594 159.011719 M 133.1875 158.265625 L 133.9375 158.265625 L 133.9375 159.015625 L 133.183594 159.015625 M 134.6875 158.265625 L 135.4375 158.265625 L 135.4375 159.015625 L 134.6875 159.015625 M 136.1875 158.269531 L 136.9375 158.269531 L 136.9375 159.019531 L 136.1875 159.019531 M 137.6875 158.269531 L 138.441406 158.269531 L 138.4375 159.019531 L 137.6875 159.019531 M 139.191406 158.273438 L 139.941406 158.273438 L 139.941406 159.023438 L 139.1875 159.023438 M 140.691406 158.273438 L 141.441406 158.273438 L 141.441406 159.023438 L 140.691406 159.023438 M 142.191406 158.277344 L 142.941406 158.277344 L 142.941406 159.027344 L 142.191406 159.027344 M 143.691406 158.277344 L 144.445312 158.277344 L 144.441406 159.027344 L 143.691406 159.027344 M 145.195312 158.277344 L 145.945312 158.28125 L 145.945312 159.03125 L 145.191406 159.027344 M 146.695312 158.28125 L 147.445312 158.28125 L 147.445312 159.03125 L 146.695312 159.03125 M 148.195312 158.28125 L 148.945312 158.285156 L 148.945312 159.035156 L 148.195312 159.03125 M 149.695312 158.285156 L 150.449219 158.285156 L 150.445312 159.035156 L 149.695312 159.035156 M 151.199219 158.285156 L 151.949219 158.285156 L 151.949219 159.035156 L 151.195312 159.035156 M 152.699219 158.289062 L 153.449219 158.289062 L 153.449219 159.039062 L 152.699219 159.039062 M 154.199219 158.289062 L 154.949219 158.289062 L 154.949219 159.039062 L 154.199219 159.039062 M 155.699219 158.292969 L 156.453125 158.292969 L 156.449219 159.042969 L 155.699219 159.042969 M 157.203125 158.292969 L 157.953125 158.292969 L 157.953125 159.042969 L 157.203125 159.042969 M 158.703125 158.296875 L 159.453125 158.296875 L 159.453125 159.046875 L 158.703125 159.046875 M 160.203125 158.296875 L 160.953125 158.296875 L 160.953125 159.046875 L 160.203125 159.046875 M 161.703125 158.296875 L 162.457031 158.300781 L 162.453125 159.050781 L 161.703125 159.046875 M 163.207031 158.300781 L 163.957031 158.300781 L 163.957031 159.050781 L 163.207031 159.050781 M 164.707031 158.300781 L 165.457031 158.304688 L 165.457031 159.054688 L 164.707031 159.050781 M 166.207031 158.304688 L 166.957031 158.304688 L 166.957031 159.054688 L 166.207031 159.054688 M 167.710938 158.304688 L 168.460938 158.304688 L 168.457031 159.054688 L 167.707031 159.054688 M 169.210938 158.308594 L 169.960938 158.308594 L 169.960938 159.058594 L 169.210938 159.058594 M 170.710938 158.308594 L 171.460938 158.308594 L 171.460938 159.058594 L 170.710938 159.058594 M 172.210938 158.3125 L 172.960938 158.3125 L 172.960938 159.0625 L 172.210938 159.0625 M 173.714844 158.3125 L 174.464844 158.3125 L 174.460938 159.0625 L 173.710938 159.0625 M 175.214844 158.316406 L 175.964844 158.316406 L 175.964844 159.066406 L 175.214844 159.066406 M 176.714844 158.316406 L 177.464844 158.316406 L 177.464844 159.066406 L 176.714844 159.066406 M 178.214844 158.316406 L 178.964844 158.320312 L 178.964844 159.070312 L 178.214844 159.066406 M 179.71875 158.320312 L 180.46875 158.320312 L 180.464844 159.070312 L 179.714844 159.070312 M 181.21875 158.320312 L 181.96875 158.324219 L 181.96875 159.074219 L 181.21875 159.070312 M 182.71875 158.324219 L 183.46875 158.324219 L 183.46875 159.074219 L 182.71875 159.074219 M 184.21875 158.324219 L 184.96875 158.324219 L 184.96875 159.074219 L 184.21875 159.074219 M 185.722656 158.328125 L 186.472656 158.328125 L 186.46875 159.078125 L 185.71875 159.078125 M 187.222656 158.328125 L 187.972656 158.328125 L 187.972656 159.078125 L 187.222656 159.078125 M 188.722656 158.332031 L 189.472656 158.332031 L 189.472656 159.082031 L 188.722656 159.082031 M 190.222656 158.332031 L 190.972656 158.332031 L 190.972656 159.082031 L 190.222656 159.082031 M 191.726562 158.335938 L 192.476562 158.335938 L 192.476562 159.085938 L 191.722656 159.085938 M 193.226562 158.335938 L 193.976562 158.335938 L 193.976562 159.085938 L 193.226562 159.085938 M 194.726562 158.335938 L 195.476562 158.339844 L 195.476562 159.089844 L 194.726562 159.085938 M 196.226562 158.339844 L 196.976562 158.339844 L 196.976562 159.089844 L 196.226562 159.089844 M 197.730469 158.339844 L 198.480469 158.34375 L 198.480469 159.09375 L 197.726562 159.089844 M 199.230469 158.34375 L 199.980469 158.34375 L 199.980469 159.09375 L 199.230469 159.09375 M 200.730469 158.34375 L 201.480469 158.34375 L 201.480469 159.09375 L 200.730469 159.09375 M 202.230469 158.347656 L 202.984375 158.347656 L 202.980469 159.097656 L 202.230469 159.097656 M 203.734375 158.347656 L 204.484375 158.347656 L 204.484375 159.097656 L 203.730469 159.097656 M 205.234375 158.351562 L 205.984375 158.351562 L 205.984375 159.101562 L 205.234375 159.101562 M 206.734375 158.351562 L 207.484375 158.351562 L 207.484375 159.101562 L 206.734375 159.101562 M 208.234375 158.355469 L 208.988281 158.355469 L 208.984375 159.105469 L 208.234375 159.105469 M 209.738281 158.355469 L 210.488281 158.355469 L 210.488281 159.105469 L 209.734375 159.105469 M 211.238281 158.355469 L 211.988281 158.359375 L 211.988281 159.109375 L 211.238281 159.105469 M 212.738281 158.359375 L 213.488281 158.359375 L 213.488281 159.109375 L 212.738281 159.109375 M 214.238281 158.359375 L 214.992188 158.363281 L 214.988281 159.113281 L 214.238281 159.109375 M 215.742188 158.363281 L 216.492188 158.363281 L 216.492188 159.113281 L 215.738281 159.113281 M 217.242188 158.363281 L 217.992188 158.363281 L 217.992188 159.113281 L 217.242188 159.113281 M 218.742188 158.367188 L 219.492188 158.367188 L 219.492188 159.117188 L 218.742188 159.117188 M 220.242188 158.367188 L 220.996094 158.367188 L 220.992188 159.117188 L 220.242188 159.117188 M 221.746094 158.371094 L 222.496094 158.371094 L 222.496094 159.121094 L 221.742188 159.121094 M 223.246094 158.371094 L 223.996094 158.371094 L 223.996094 159.121094 L 223.246094 159.121094 M 224.746094 158.375 L 225.496094 158.375 L 225.496094 159.125 L 224.746094 159.125 M 226.246094 158.375 L 227 158.375 L 226.996094 159.125 L 226.246094 159.125 M 227.75 158.375 L 228.5 158.378906 L 228.5 159.128906 L 227.75 159.125 M 229.25 158.378906 L 230 158.378906 L 230 159.128906 L 229.25 159.128906 M 230.75 158.378906 L 231.5 158.382812 L 231.5 159.132812 L 230.75 159.128906 M 232.25 158.382812 L 233.003906 158.382812 L 233 159.132812 L 232.25 159.132812 M 233.753906 158.382812 L 234.503906 158.382812 L 234.503906 159.132812 L 233.753906 159.132812 M 235.253906 158.386719 L 236.003906 158.386719 L 236.003906 159.136719 L 235.253906 159.136719 M 236.753906 158.386719 L 237.503906 158.386719 L 237.503906 159.136719 L 236.753906 159.136719 M 238.257812 158.390625 L 239.007812 158.390625 L 239.003906 159.140625 L 238.253906 159.140625 M 239.757812 158.390625 L 240.507812 158.390625 L 240.507812 159.140625 L 239.757812 159.140625 M 241.257812 158.394531 L 242.007812 158.394531 L 242.007812 159.144531 L 241.257812 159.144531 M 242.757812 158.394531 L 243.507812 158.394531 L 243.507812 159.144531 L 242.757812 159.144531 M 244.261719 158.394531 L 245.011719 158.398438 L 245.007812 159.148438 L 244.257812 159.144531 M 245.761719 158.398438 L 246.511719 158.398438 L 246.511719 159.148438 L 245.761719 159.148438 M 247.261719 158.398438 L 248.011719 158.402344 L 248.011719 159.152344 L 247.261719 159.148438 M 248.761719 158.402344 L 249.511719 158.402344 L 249.511719 159.152344 L 248.761719 159.152344 M 250.265625 158.402344 L 251.015625 158.402344 L 251.011719 159.152344 L 250.261719 159.152344 M 251.765625 158.40625 L 252.515625 158.40625 L 252.515625 159.15625 L 251.765625 159.15625 M 253.265625 158.40625 L 254.015625 158.40625 L 254.015625 159.15625 L 253.265625 159.15625 M 254.765625 158.410156 L 255.515625 158.410156 L 255.515625 159.160156 L 254.765625 159.160156 M 256.269531 158.410156 L 257.019531 158.410156 L 257.015625 159.160156 L 256.265625 159.160156 M 257.769531 158.414062 L 258.519531 158.414062 L 258.519531 159.164062 L 257.769531 159.164062 M 259.269531 158.414062 L 260.019531 158.414062 L 260.019531 159.164062 L 259.269531 159.164062 M 260.769531 158.414062 L 261.519531 158.417969 L 261.519531 159.167969 L 260.769531 159.164062 M 262.273438 158.417969 L 263.023438 158.417969 L 263.019531 159.167969 L 262.269531 159.167969 M 263.773438 158.417969 L 264.523438 158.421875 L 264.523438 159.171875 L 263.773438 159.167969 M 265.273438 158.421875 L 266.023438 158.421875 L 266.023438 159.171875 L 265.273438 159.171875 M 266.773438 158.421875 L 267.523438 158.421875 L 267.523438 159.171875 L 266.773438 159.171875 M 268.277344 158.425781 L 269.027344 158.425781 L 269.027344 159.175781 L 268.273438 159.175781 M 269.777344 158.425781 L 270.527344 158.425781 L 270.527344 159.175781 L 269.777344 159.175781 M 271.277344 158.429688 L 272.027344 158.429688 L 272.027344 159.179688 L 271.277344 159.179688 M 272.777344 158.429688 L 273.53125 158.429688 L 273.527344 159.179688 L 272.777344 159.179688 M 274.28125 158.433594 L 275.03125 158.433594 L 275.03125 159.183594 L 274.277344 159.183594 M 275.78125 158.433594 L 276.53125 158.433594 L 276.53125 159.183594 L 275.78125 159.183594 M 277.28125 158.433594 L 278.03125 158.4375 L 278.03125 159.1875 L 277.28125 159.183594 M 278.78125 158.4375 L 279.535156 158.4375 L 279.53125 159.1875 L 278.78125 159.1875 M 280.285156 158.4375 L 281.035156 158.441406 L 281.035156 159.191406 L 280.28125 159.1875 M 281.785156 158.441406 L 282.535156 158.441406 L 282.535156 159.191406 L 281.785156 159.191406 M 283.285156 158.441406 L 284.035156 158.441406 L 284.035156 159.191406 L 283.285156 159.191406 M 284.785156 158.445312 L 285.539062 158.445312 L 285.535156 159.195312 L 284.785156 159.195312 M 286.289062 158.445312 L 287.039062 158.445312 L 287.039062 159.195312 L 286.285156 159.195312 M 287.789062 158.449219 L 288.539062 158.449219 L 288.539062 159.199219 L 287.789062 159.199219 M 289.289062 158.449219 L 290.039062 158.449219 L 290.039062 159.199219 L 289.289062 159.199219 M 290.789062 158.453125 L 291.542969 158.453125 L 291.539062 159.203125 L 290.789062 159.203125 M 292.292969 158.453125 L 293.042969 158.453125 L 293.042969 159.203125 L 292.289062 159.203125 M 293.792969 158.453125 L 294.542969 158.457031 L 294.542969 159.207031 L 293.792969 159.203125 M 295.292969 158.457031 L 296.042969 158.457031 L 296.042969 159.207031 L 295.292969 159.207031 M 296.792969 158.457031 L 297.546875 158.460938 L 297.542969 159.210938 L 296.792969 159.207031 M 298.296875 158.460938 L 299.046875 158.460938 L 299.046875 159.210938 L 298.292969 159.210938 M 299.796875 158.460938 L 300.546875 158.460938 L 300.546875 159.210938 L 299.796875 159.210938 M 301.296875 158.464844 L 302.046875 158.464844 L 302.046875 159.214844 L 301.296875 159.214844 M 302.796875 158.464844 L 303.550781 158.464844 L 303.546875 159.214844 L 302.796875 159.214844 M 304.300781 158.46875 L 305.050781 158.46875 L 305.050781 159.21875 L 304.300781 159.21875 M 305.800781 158.46875 L 306.550781 158.46875 L 306.550781 159.21875 L 305.800781 159.21875 M 307.300781 158.472656 L 308.050781 158.472656 L 308.050781 159.222656 L 307.300781 159.222656 M 308.804688 158.472656 L 309.554688 158.472656 L 309.550781 159.222656 L 308.800781 159.222656 M 310.304688 158.472656 L 311.054688 158.476562 L 311.054688 159.226562 L 310.304688 159.222656 M 311.804688 158.476562 L 312.554688 158.476562 L 312.554688 159.226562 L 311.804688 159.226562 M 313.304688 158.476562 L 314.054688 158.480469 L 314.054688 159.230469 L 313.304688 159.226562 M 314.808594 158.480469 L 315.558594 158.480469 L 315.554688 159.230469 L 314.804688 159.230469 M 316.308594 158.480469 L 317.058594 158.480469 L 317.058594 159.230469 L 316.308594 159.230469 M 317.808594 158.484375 L 318.558594 158.484375 L 318.558594 159.234375 L 317.808594 159.234375 M 319.308594 158.484375 L 320.058594 158.484375 L 320.058594 159.234375 L 319.308594 159.234375 M 320.8125 158.488281 L 321.5625 158.488281 L 321.558594 159.238281 L 320.808594 159.238281 M 322.3125 158.488281 L 323.0625 158.488281 L 323.0625 159.238281 L 322.3125 159.238281 M 323.8125 158.492188 L 324.5625 158.492188 L 324.5625 159.242188 L 323.8125 159.242188 M 325.3125 158.492188 L 326.0625 158.492188 L 326.0625 159.242188 L 325.3125 159.242188 M 326.816406 158.492188 L 327.566406 158.496094 L 327.5625 159.246094 L 326.8125 159.242188 M 328.316406 158.496094 L 329.066406 158.496094 L 329.066406 159.246094 L 328.316406 159.246094 M 329.816406 158.496094 L 330.566406 158.5 L 330.566406 159.25 L 329.816406 159.246094 M 331.316406 158.5 L 332.066406 158.5 L 332.066406 159.25 L 331.316406 159.25 M 332.820312 158.5 L 333.570312 158.5 L 333.566406 159.25 L 332.816406 159.25 M 334.320312 158.503906 L 335.070312 158.503906 L 335.070312 159.253906 L 334.320312 159.253906 M 335.820312 158.503906 L 336.367188 158.503906 L 336.363281 159.253906 L 335.820312 159.253906 " fill-opacity="1" fill-rule="nonzero"/><path fill="rgb(98.81897%, 100%, 100%)" d="M 20.457031 220.90625 L 21.207031 220.90625 L 21.207031 221.65625 L 20.457031 221.65625 M 21.957031 220.910156 L 22.707031 220.910156 L 22.707031 221.660156 L 21.957031 221.660156 M 23.457031 220.910156 L 24.207031 220.910156 L 24.207031 221.660156 L 23.457031 221.660156 M 24.957031 220.914062 L 25.710938 220.914062 L 25.707031 221.664062 L 24.957031 221.664062 M 26.460938 220.914062 L 27.210938 220.914062 L 27.210938 221.664062 L 26.460938 221.664062 M 27.960938 220.917969 L 28.710938 220.917969 L 28.710938 221.667969 L 27.960938 221.667969 M 29.460938 220.917969 L 30.210938 220.917969 L 30.210938 221.667969 L 29.460938 221.667969 M 30.964844 220.917969 L 31.714844 220.921875 L 31.710938 221.671875 L 30.960938 221.667969 M 32.464844 220.921875 L 33.214844 220.921875 L 33.214844 221.671875 L 32.464844 221.671875 M 33.964844 220.921875 L 34.714844 220.925781 L 34.714844 221.675781 L 33.964844 221.671875 M 35.464844 220.925781 L 36.214844 220.925781 L 36.214844 221.675781 L 35.464844 221.675781 M 36.96875 220.925781 L 37.71875 220.925781 L 37.714844 221.675781 L 36.964844 221.675781 M 38.46875 220.929688 L 39.21875 220.929688 L 39.21875 221.679688 L 38.46875 221.679688 M 39.96875 220.929688 L 40.71875 220.929688 L 40.71875 221.679688 L 39.96875 221.679688 M 41.46875 220.933594 L 42.21875 220.933594 L 42.21875 221.683594 L 41.46875 221.683594 M 42.972656 220.933594 L 43.722656 220.933594 L 43.71875 221.683594 L 42.96875 221.683594 M 44.472656 220.9375 L 45.222656 220.9375 L 45.222656 221.6875 L 44.472656 221.6875 M 45.972656 220.9375 L 46.722656 220.9375 L 46.722656 221.6875 L 45.972656 221.6875 M 47.472656 220.9375 L 48.222656 220.941406 L 48.222656 221.691406 L 47.472656 221.6875 M 48.976562 220.941406 L 49.726562 220.941406 L 49.722656 221.691406 L 48.972656 221.691406 M 50.476562 220.941406 L 51.226562 220.945312 L 51.226562 221.695312 L 50.476562 221.691406 M 51.976562 220.945312 L 52.726562 220.945312 L 52.726562 221.695312 L 51.976562 221.695312 M 53.476562 220.945312 L 54.226562 220.945312 L 54.226562 221.695312 L 53.476562 221.695312 M 54.980469 220.949219 L 55.730469 220.949219 L 55.730469 221.699219 L 54.976562 221.699219 M 56.480469 220.949219 L 57.230469 220.949219 L 57.230469 221.699219 L 56.480469 221.699219 M 57.980469 220.953125 L 58.730469 220.953125 L 58.730469 221.703125 L 57.980469 221.703125 M 59.480469 220.953125 L 60.230469 220.953125 L 60.230469 221.703125 L 59.480469 221.703125 M 60.984375 220.957031 L 61.734375 220.957031 L 61.734375 221.707031 L 60.980469 221.707031 M 62.484375 220.957031 L 63.234375 220.957031 L 63.234375 221.707031 L 62.484375 221.707031 M 63.984375 220.957031 L 64.734375 220.960938 L 64.734375 221.710938 L 63.984375 221.707031 M 65.484375 220.960938 L 66.238281 220.960938 L 66.234375 221.710938 L 65.484375 221.710938 M 66.988281 220.960938 L 67.738281 220.964844 L 67.738281 221.714844 L 66.984375 221.710938 M 68.488281 220.964844 L 69.238281 220.964844 L 69.238281 221.714844 L 68.488281 221.714844 M 69.988281 220.964844 L 70.738281 220.964844 L 70.738281 221.714844 L 69.988281 221.714844 M 71.488281 220.96875 L 72.242188 220.96875 L 72.238281 221.71875 L 71.488281 221.71875 M 72.992188 220.96875 L 73.742188 220.96875 L 73.742188 221.71875 L 72.988281 221.71875 M 74.492188 220.972656 L 75.242188 220.972656 L 75.242188 221.722656 L 74.492188 221.722656 M 75.992188 220.972656 L 76.742188 220.972656 L 76.742188 221.722656 L 75.992188 221.722656 M 77.492188 220.976562 L 78.246094 220.976562 L 78.242188 221.726562 L 77.492188 221.726562 M 78.996094 220.976562 L 79.746094 220.976562 L 79.746094 221.726562 L 78.992188 221.726562 M 80.496094 220.976562 L 81.246094 220.980469 L 81.246094 221.730469 L 80.496094 221.726562 M 81.996094 220.980469 L 82.746094 220.980469 L 82.746094 221.730469 L 81.996094 221.730469 M 83.496094 220.980469 L 84.25 220.984375 L 84.246094 221.734375 L 83.496094 221.730469 M 85 220.984375 L 85.75 220.984375 L 85.75 221.734375 L 84.996094 221.734375 M 86.5 220.984375 L 87.25 220.984375 L 87.25 221.734375 L 86.5 221.734375 M 88 220.988281 L 88.75 220.988281 L 88.75 221.738281 L 88 221.738281 M 89.5 220.988281 L 90.253906 220.988281 L 90.25 221.738281 L 89.5 221.738281 M 91.003906 220.992188 L 91.753906 220.992188 L 91.753906 221.742188 L 91 221.742188 M 92.503906 220.992188 L 93.253906 220.992188 L 93.253906 221.742188 L 92.503906 221.742188 M 94.003906 220.996094 L 94.753906 220.996094 L 94.753906 221.746094 L 94.003906 221.746094 M 95.503906 220.996094 L 96.257812 220.996094 L 96.253906 221.746094 L 95.503906 221.746094 M 97.007812 220.996094 L 97.757812 221 L 97.757812 221.75 L 97.007812 221.746094 M 98.507812 221 L 99.257812 221 L 99.257812 221.75 L 98.507812 221.75 M 100.007812 221 L 100.757812 221.003906 L 100.757812 221.753906 L 100.007812 221.75 M 101.511719 221.003906 L 102.261719 221.003906 L 102.257812 221.753906 L 101.507812 221.753906 M 103.011719 221.003906 L 103.761719 221.003906 L 103.761719 221.753906 L 103.011719 221.753906 M 104.511719 221.007812 L 105.261719 221.007812 L 105.261719 221.757812 L 104.511719 221.757812 M 106.011719 221.007812 L 106.761719 221.007812 L 106.761719 221.757812 L 106.011719 221.757812 M 107.515625 221.011719 L 108.265625 221.011719 L 108.261719 221.761719 L 107.511719 221.761719 M 109.015625 221.011719 L 109.765625 221.011719 L 109.765625 221.761719 L 109.015625 221.761719 M 110.515625 221.015625 L 111.265625 221.015625 L 111.265625 221.765625 L 110.515625 221.765625 M 112.015625 221.015625 L 112.765625 221.015625 L 112.765625 221.765625 L 112.015625 221.765625 M 113.519531 221.015625 L 114.269531 221.019531 L 114.265625 221.769531 L 113.515625 221.765625 M 115.019531 221.019531 L 115.769531 221.019531 L 115.769531 221.769531 L 115.019531 221.769531 M 116.519531 221.019531 L 117.269531 221.023438 L 117.269531 221.773438 L 116.519531 221.769531 M 118.019531 221.023438 L 118.769531 221.023438 L 118.769531 221.773438 L 118.019531 221.773438 M 119.523438 221.023438 L 120.273438 221.023438 L 120.269531 221.773438 L 119.519531 221.773438 M 121.023438 221.027344 L 121.773438 221.027344 L 121.773438 221.777344 L 121.023438 221.777344 M 122.523438 221.027344 L 123.273438 221.027344 L 123.273438 221.777344 L 122.523438 221.777344 M 124.023438 221.03125 L 124.773438 221.03125 L 124.773438 221.78125 L 124.023438 221.78125 M 125.527344 221.03125 L 126.277344 221.03125 L 126.273438 221.78125 L 125.523438 221.78125 M 127.027344 221.035156 L 127.777344 221.035156 L 127.777344 221.785156 L 127.027344 221.785156 M 128.527344 221.035156 L 129.277344 221.035156 L 129.277344 221.785156 L 128.527344 221.785156 M 130.027344 221.035156 L 130.777344 221.039062 L 130.777344 221.789062 L 130.027344 221.785156 M 131.53125 221.039062 L 132.28125 221.039062 L 132.28125 221.789062 L 131.527344 221.789062 M 133.03125 221.039062 L 133.78125 221.042969 L 133.78125 221.792969 L 133.03125 221.789062 M 134.53125 221.042969 L 135.28125 221.042969 L 135.28125 221.792969 L 134.53125 221.792969 M 136.03125 221.042969 L 136.785156 221.042969 L 136.78125 221.792969 L 136.03125 221.792969 M 137.535156 221.046875 L 138.285156 221.046875 L 138.285156 221.796875 L 137.53125 221.796875 M 139.035156 221.046875 L 139.785156 221.046875 L 139.785156 221.796875 L 139.035156 221.796875 M 140.535156 221.050781 L 141.285156 221.050781 L 141.285156 221.800781 L 140.535156 221.800781 M 142.035156 221.050781 L 142.789062 221.050781 L 142.785156 221.800781 L 142.035156 221.800781 M 143.539062 221.054688 L 144.289062 221.054688 L 144.289062 221.804688 L 143.535156 221.804688 M 145.039062 221.054688 L 145.789062 221.054688 L 145.789062 221.804688 L 145.039062 221.804688 M 146.539062 221.054688 L 147.289062 221.058594 L 147.289062 221.808594 L 146.539062 221.804688 M 148.039062 221.058594 L 148.792969 221.058594 L 148.789062 221.808594 L 148.039062 221.808594 M 149.542969 221.058594 L 150.292969 221.0625 L 150.292969 221.8125 L 149.539062 221.808594 M 151.042969 221.0625 L 151.792969 221.0625 L 151.792969 221.8125 L 151.042969 221.8125 M 152.542969 221.0625 L 153.292969 221.0625 L 153.292969 221.8125 L 152.542969 221.8125 M 154.042969 221.066406 L 154.796875 221.066406 L 154.792969 221.816406 L 154.042969 221.816406 M 155.546875 221.066406 L 156.296875 221.066406 L 156.296875 221.816406 L 155.542969 221.816406 M 157.046875 221.070312 L 157.796875 221.070312 L 157.796875 221.820312 L 157.046875 221.820312 M 158.546875 221.070312 L 159.296875 221.070312 L 159.296875 221.820312 L 158.546875 221.820312 M 160.046875 221.074219 L 160.800781 221.074219 L 160.796875 221.824219 L 160.046875 221.824219 M 161.550781 221.074219 L 162.300781 221.074219 L 162.300781 221.824219 L 161.546875 221.824219 M 163.050781 221.074219 L 163.800781 221.078125 L 163.800781 221.828125 L 163.050781 221.824219 M 164.550781 221.078125 L 165.300781 221.078125 L 165.300781 221.828125 L 164.550781 221.828125 M 166.050781 221.078125 L 166.804688 221.082031 L 166.800781 221.832031 L 166.050781 221.828125 M 167.554688 221.082031 L 168.304688 221.082031 L 168.304688 221.832031 L 167.554688 221.832031 M 169.054688 221.082031 L 169.804688 221.082031 L 169.804688 221.832031 L 169.054688 221.832031 M 170.554688 221.085938 L 171.304688 221.085938 L 171.304688 221.835938 L 170.554688 221.835938 M 172.058594 221.085938 L 172.808594 221.085938 L 172.804688 221.835938 L 172.054688 221.835938 M 173.558594 221.089844 L 174.308594 221.089844 L 174.308594 221.839844 L 173.558594 221.839844 M 175.058594 221.089844 L 175.808594 221.089844 L 175.808594 221.839844 L 175.058594 221.839844 M 176.558594 221.09375 L 177.308594 221.09375 L 177.308594 221.84375 L 176.558594 221.84375 M 178.0625 221.09375 L 178.8125 221.09375 L 178.808594 221.84375 L 178.058594 221.84375 M 179.5625 221.09375 L 180.3125 221.097656 L 180.3125 221.847656 L 179.5625 221.84375 M 181.0625 221.097656 L 181.8125 221.097656 L 181.8125 221.847656 L 181.0625 221.847656 M 182.5625 221.097656 L 183.3125 221.101562 L 183.3125 221.851562 L 182.5625 221.847656 M 184.066406 221.101562 L 184.816406 221.101562 L 184.8125 221.851562 L 184.0625 221.851562 M 185.566406 221.101562 L 186.316406 221.101562 L 186.316406 221.851562 L 185.566406 221.851562 M 187.066406 221.105469 L 187.816406 221.105469 L 187.816406 221.855469 L 187.066406 221.855469 M 188.566406 221.105469 L 189.316406 221.105469 L 189.316406 221.855469 L 188.566406 221.855469 M 190.070312 221.109375 L 190.820312 221.109375 L 190.816406 221.859375 L 190.066406 221.859375 M 191.570312 221.109375 L 192.320312 221.109375 L 192.320312 221.859375 L 191.570312 221.859375 M 193.070312 221.113281 L 193.820312 221.113281 L 193.820312 221.863281 L 193.070312 221.863281 M 194.570312 221.113281 L 195.320312 221.113281 L 195.320312 221.863281 L 194.570312 221.863281 M 196.074219 221.113281 L 196.824219 221.117188 L 196.820312 221.867188 L 196.070312 221.863281 M 197.574219 221.117188 L 198.324219 221.117188 L 198.324219 221.867188 L 197.574219 221.867188 M 199.074219 221.117188 L 199.824219 221.121094 L 199.824219 221.871094 L 199.074219 221.867188 M 200.574219 221.121094 L 201.324219 221.121094 L 201.324219 221.871094 L 200.574219 221.871094 M 202.078125 221.121094 L 202.828125 221.121094 L 202.828125 221.871094 L 202.074219 221.871094 M 203.578125 221.125 L 204.328125 221.125 L 204.328125 221.875 L 203.578125 221.875 M 205.078125 221.125 L 205.828125 221.125 L 205.828125 221.875 L 205.078125 221.875 M 206.578125 221.128906 L 207.332031 221.128906 L 207.328125 221.878906 L 206.578125 221.878906 M 208.082031 221.128906 L 208.832031 221.128906 L 208.832031 221.878906 L 208.078125 221.878906 M 209.582031 221.132812 L 210.332031 221.132812 L 210.332031 221.882812 L 209.582031 221.882812 M 211.082031 221.132812 L 211.832031 221.132812 L 211.832031 221.882812 L 211.082031 221.882812 M 212.582031 221.132812 L 213.335938 221.136719 L 213.332031 221.886719 L 212.582031 221.882812 M 214.085938 221.136719 L 214.835938 221.136719 L 214.835938 221.886719 L 214.082031 221.886719 M 215.585938 221.136719 L 216.335938 221.140625 L 216.335938 221.890625 L 215.585938 221.886719 M 217.085938 221.140625 L 217.835938 221.140625 L 217.835938 221.890625 L 217.085938 221.890625 M 218.585938 221.140625 L 219.339844 221.140625 L 219.335938 221.890625 L 218.585938 221.890625 M 220.089844 221.144531 L 220.839844 221.144531 L 220.839844 221.894531 L 220.085938 221.894531 M 221.589844 221.144531 L 222.339844 221.144531 L 222.339844 221.894531 L 221.589844 221.894531 M 223.089844 221.148438 L 223.839844 221.148438 L 223.839844 221.898438 L 223.089844 221.898438 M 224.589844 221.148438 L 225.34375 221.148438 L 225.339844 221.898438 L 224.589844 221.898438 M 226.09375 221.152344 L 226.84375 221.152344 L 226.84375 221.902344 L 226.089844 221.902344 M 227.59375 221.152344 L 228.34375 221.152344 L 228.34375 221.902344 L 227.59375 221.902344 M 229.09375 221.152344 L 229.84375 221.15625 L 229.84375 221.90625 L 229.09375 221.902344 M 230.59375 221.15625 L 231.347656 221.15625 L 231.34375 221.90625 L 230.59375 221.90625 M 232.097656 221.15625 L 232.847656 221.160156 L 232.847656 221.910156 L 232.09375 221.90625 M 233.597656 221.160156 L 234.347656 221.160156 L 234.347656 221.910156 L 233.597656 221.910156 M 235.097656 221.160156 L 235.847656 221.160156 L 235.847656 221.910156 L 235.097656 221.910156 M 236.597656 221.164062 L 237.351562 221.164062 L 237.347656 221.914062 L 236.597656 221.914062 M 238.101562 221.164062 L 238.851562 221.164062 L 238.851562 221.914062 L 238.101562 221.914062 M 239.601562 221.167969 L 240.351562 221.167969 L 240.351562 221.917969 L 239.601562 221.917969 M 241.101562 221.167969 L 241.851562 221.167969 L 241.851562 221.917969 L 241.101562 221.917969 M 242.601562 221.171875 L 243.355469 221.171875 L 243.351562 221.921875 L 242.601562 221.921875 M 244.105469 221.171875 L 244.855469 221.171875 L 244.855469 221.921875 L 244.105469 221.921875 M 245.605469 221.171875 L 246.355469 221.175781 L 246.355469 221.925781 L 245.605469 221.921875 M 247.105469 221.175781 L 247.855469 221.175781 L 247.855469 221.925781 L 247.105469 221.925781 M 248.609375 221.175781 L 249.359375 221.179688 L 249.355469 221.929688 L 248.605469 221.925781 M 250.109375 221.179688 L 250.859375 221.179688 L 250.859375 221.929688 L 250.109375 221.929688 M 251.609375 221.179688 L 252.359375 221.179688 L 252.359375 221.929688 L 251.609375 221.929688 M 253.109375 221.183594 L 253.859375 221.183594 L 253.859375 221.933594 L 253.109375 221.933594 M 254.613281 221.183594 L 255.363281 221.183594 L 255.359375 221.933594 L 254.609375 221.933594 M 256.113281 221.1875 L 256.863281 221.1875 L 256.863281 221.9375 L 256.113281 221.9375 M 257.613281 221.1875 L 258.363281 221.1875 L 258.363281 221.9375 L 257.613281 221.9375 M 259.113281 221.191406 L 259.863281 221.191406 L 259.863281 221.941406 L 259.113281 221.941406 M 260.617188 221.191406 L 261.367188 221.191406 L 261.363281 221.941406 L 260.613281 221.941406 M 262.117188 221.191406 L 262.867188 221.195312 L 262.867188 221.945312 L 262.117188 221.941406 M 263.617188 221.195312 L 264.367188 221.195312 L 264.367188 221.945312 L 263.617188 221.945312 M 265.117188 221.195312 L 265.867188 221.199219 L 265.867188 221.949219 L 265.117188 221.945312 M 266.621094 221.199219 L 267.371094 221.199219 L 267.367188 221.949219 L 266.617188 221.949219 M 268.121094 221.199219 L 268.871094 221.199219 L 268.871094 221.949219 L 268.121094 221.949219 M 269.621094 221.203125 L 270.371094 221.203125 L 270.371094 221.953125 L 269.621094 221.953125 M 271.121094 221.203125 L 271.871094 221.203125 L 271.871094 221.953125 L 271.121094 221.953125 M 272.625 221.207031 L 273.375 221.207031 L 273.375 221.957031 L 272.621094 221.957031 M 274.125 221.207031 L 274.875 221.207031 L 274.875 221.957031 L 274.125 221.957031 M 275.625 221.210938 L 276.375 221.210938 L 276.375 221.960938 L 275.625 221.960938 M 277.125 221.210938 L 277.875 221.210938 L 277.875 221.960938 L 277.125 221.960938 M 278.628906 221.210938 L 279.378906 221.214844 L 279.378906 221.964844 L 278.625 221.960938 M 280.128906 221.214844 L 280.878906 221.214844 L 280.878906 221.964844 L 280.128906 221.964844 M 281.628906 221.214844 L 282.378906 221.21875 L 282.378906 221.96875 L 281.628906 221.964844 M 283.128906 221.21875 L 283.882812 221.21875 L 283.878906 221.96875 L 283.128906 221.96875 M 284.632812 221.21875 L 285.382812 221.21875 L 285.382812 221.96875 L 284.628906 221.96875 M 286.132812 221.222656 L 286.882812 221.222656 L 286.882812 221.972656 L 286.132812 221.972656 M 287.632812 221.222656 L 288.382812 221.222656 L 288.382812 221.972656 L 287.632812 221.972656 M 289.132812 221.226562 L 289.886719 221.226562 L 289.882812 221.976562 L 289.132812 221.976562 M 290.636719 221.226562 L 291.386719 221.226562 L 291.386719 221.976562 L 290.632812 221.976562 M 292.136719 221.230469 L 292.886719 221.230469 L 292.886719 221.980469 L 292.136719 221.980469 M 293.636719 221.230469 L 294.386719 221.230469 L 294.386719 221.980469 L 293.636719 221.980469 M 295.136719 221.230469 L 295.890625 221.234375 L 295.886719 221.984375 L 295.136719 221.980469 M 296.640625 221.234375 L 297.390625 221.234375 L 297.390625 221.984375 L 296.636719 221.984375 M 298.140625 221.234375 L 298.890625 221.238281 L 298.890625 221.988281 L 298.140625 221.984375 M 299.640625 221.238281 L 300.390625 221.238281 L 300.390625 221.988281 L 299.640625 221.988281 M 301.140625 221.238281 L 301.894531 221.238281 L 301.890625 221.988281 L 301.140625 221.988281 M 302.644531 221.242188 L 303.394531 221.242188 L 303.394531 221.992188 L 302.640625 221.992188 M 304.144531 221.242188 L 304.894531 221.242188 L 304.894531 221.992188 L 304.144531 221.992188 M 305.644531 221.246094 L 306.394531 221.246094 L 306.394531 221.996094 L 305.644531 221.996094 M 307.144531 221.246094 L 307.898438 221.246094 L 307.894531 221.996094 L 307.144531 221.996094 M 308.648438 221.25 L 309.398438 221.25 L 309.398438 222 L 308.644531 222 M 310.148438 221.25 L 310.898438 221.25 L 310.898438 222 L 310.148438 222 M 311.648438 221.25 L 312.398438 221.253906 L 312.398438 222.003906 L 311.648438 222 M 313.148438 221.253906 L 313.902344 221.253906 L 313.898438 222.003906 L 313.148438 222.003906 M 314.652344 221.253906 L 315.402344 221.257812 L 315.402344 222.007812 L 314.652344 222.003906 M 316.152344 221.257812 L 316.902344 221.257812 L 316.902344 222.007812 L 316.152344 222.007812 M 317.652344 221.257812 L 318.402344 221.257812 L 318.402344 222.007812 L 317.652344 222.007812 M 319.15625 221.261719 L 319.90625 221.261719 L 319.902344 222.011719 L 319.152344 222.011719 M 320.65625 221.261719 L 321.40625 221.261719 L 321.40625 222.011719 L 320.65625 222.011719 M 322.15625 221.265625 L 322.90625 221.265625 L 322.90625 222.015625 L 322.15625 222.015625 M 323.65625 221.265625 L 324.40625 221.265625 L 324.40625 222.015625 L 323.65625 222.015625 M 325.160156 221.269531 L 325.910156 221.269531 L 325.90625 222.019531 L 325.15625 222.019531 M 326.660156 221.269531 L 327.410156 221.269531 L 327.410156 222.019531 L 326.660156 222.019531 M 328.160156 221.269531 L 328.910156 221.273438 L 328.910156 222.023438 L 328.160156 222.019531 M 329.660156 221.273438 L 330.410156 221.273438 L 330.410156 222.023438 L 329.660156 222.023438 M 331.164062 221.273438 L 331.914062 221.277344 L 331.910156 222.027344 L 331.160156 222.023438 M 332.664062 221.277344 L 333.414062 221.277344 L 333.414062 222.027344 L 332.664062 222.027344 M 334.164062 221.277344 L 334.914062 221.277344 L 334.914062 222.027344 L 334.164062 222.027344 M 335.664062 221.28125 L 336.414062 221.28125 L 336.414062 222.03125 L 335.664062 222.03125 M 337.167969 221.28125 L 337.710938 221.28125 L 337.710938 222.03125 L 337.164062 222.03125 " fill-opacity="1" fill-rule="nonzero"/><path fill="rgb(90.19928%, 41.178894%, 53.329468%)" d="M 152.609375 144.992188 L 184.109375 144.992188 L 184.109375 284.484375 L 152.609375 284.484375 L 152.609375 144.992188 " fill-opacity="1" fill-rule="nonzero"/><path fill="rgb(90.19928%, 41.178894%, 53.329468%)" d="M 204.3125 107.152344 L 235.8125 107.152344 L 235.8125 284.890625 L 204.3125 284.890625 L 204.3125 107.152344 " fill-opacity="1" fill-rule="nonzero"/><path fill="rgb(90.19928%, 41.178894%, 53.329468%)" d="M 254.265625 158.695312 L 285.765625 158.695312 L 285.765625 283.941406 L 254.265625 283.941406 L 254.265625 158.695312 " fill-opacity="1" fill-rule="nonzero"/><path fill="rgb(90.19928%, 41.178894%, 53.329468%)" d="M 57.242188 284.289062 L 72.976562 257.039062 L 88.707031 284.289062 Z M 57.242188 284.289062 " fill-opacity="1" fill-rule="nonzero"/><path fill="rgb(90.19928%, 41.178894%, 53.329468%)" d="M 98.855469 218.164062 C 92.902344 212.109375 79.816406 215.320312 69.625 225.339844 C 59.433594 235.355469 55.996094 248.386719 61.949219 254.441406 C 67.902344 260.5 80.988281 257.285156 91.179688 247.269531 C 101.371094 237.25 104.808594 224.222656 98.855469 218.164062 " fill-opacity="1" fill-rule="nonzero"/><path fill="rgb(90.19928%, 41.178894%, 53.329468%)" d="M 71.96875 226.230469 L 86.46875 250.765625 L 61.933594 265.265625 L 71.96875 226.230469 " fill-opacity="1" fill-rule="nonzero"/><path fill="rgb(90.19928%, 41.178894%, 53.329468%)" d="M 66.890625 209.425781 L 66.890625 209.464844 L 32.808594 242.425781 L 66.914062 242.425781 L 101.042969 209.425781 L 66.890625 209.425781 " fill-opacity="1" fill-rule="nonzero"/><path fill="rgb(90.19928%, 41.178894%, 53.329468%)" d="M 65.832031 211.402344 C 65.789062 211.4375 65.75 211.457031 65.699219 211.5 L 58.984375 217.257812 C 57.230469 218.761719 56.941406 221.328125 58.34375 222.964844 L 74.257812 241.519531 C 75.660156 243.15625 78.25 243.265625 80.003906 241.765625 L 86.71875 236.003906 C 88.46875 234.5 88.761719 231.933594 87.359375 230.296875 L 71.441406 211.742188 C 70.824219 211.023438 69.976562 210.597656 69.082031 210.480469 C 68.832031 209.25 68.039062 206.472656 64.796875 205.417969 C 64.789062 205.40625 66.507812 207.390625 65.832031 211.402344 " fill-opacity="1" fill-rule="nonzero"/><path fill="rgb(90.19928%, 41.178894%, 53.329468%)" d="M 67 212.097656 L 101.472656 212.097656 L 101.472656 225.597656 L 67 225.597656 L 67 212.097656 " fill-opacity="1" fill-rule="nonzero"/><path fill="rgb(90.19928%, 41.178894%, 53.329468%)" d="M 90.023438 214.601562 L 120.015625 205.003906 L 123.902344 217.144531 L 93.910156 226.746094 L 90.023438 214.601562 " fill-opacity="1" fill-rule="nonzero"/><path fill="rgb(90.19928%, 41.178894%, 53.329468%)" d="M 101.703125 209.425781 L 95.183594 209.425781 L 90.570312 214.140625 L 90.570312 217.460938 L 95.183594 222.175781 L 101.703125 222.175781 L 106.3125 217.460938 L 106.3125 214.140625 L 101.703125 209.425781 " fill-opacity="1" fill-rule="nonzero"/><path fill="rgb(90.19928%, 41.178894%, 53.329468%)" d="M 105.09375 192.867188 L 120.332031 207.320312 L 112.074219 216.023438 L 96.839844 201.570312 L 105.09375 192.867188 " fill-opacity="1" fill-rule="nonzero"/><path fill="rgb(90.19928%, 41.178894%, 53.329468%)" d="M 120.390625 207.628906 L 132.382812 179.726562 L 105.15625 193.175781 L 120.390625 207.628906 " fill-opacity="1" fill-rule="nonzero"/><path fill="rgb(90.19928%, 41.178894%, 53.329468%)" d="M 30.792969 257.011719 L 53.0625 234.742188 L 75.335938 257.015625 L 30.792969 257.011719 " fill-opacity="1" fill-rule="nonzero"/></svg>