<svg xmlns="http://www.w3.org/2000/svg" xmlns:xlink="http://www.w3.org/1999/xlink" width="500" zoomAndPan="magnify" viewBox="0 0 375 374.999991" height="500" preserveAspectRatio="xMidYMid meet" version="1.0"><defs><g/></defs><path fill="rgb(100%, 45.878601%, 59.21936%)" d="M 124.101562 154.789062 L 144.15625 120.050781 L 164.214844 154.789062 Z M 124.101562 154.789062 " fill-opacity="1" fill-rule="nonzero"/><path fill="rgb(100%, 45.878601%, 59.21936%)" d="M 177.082031 70.425781 C 169.53125 62.746094 152.875 66.875 139.875 79.652344 C 126.878906 92.429688 122.460938 109.011719 130.011719 116.691406 C 137.5625 124.375 154.21875 120.242188 167.214844 107.464844 C 180.214844 94.691406 184.628906 78.105469 177.082031 70.425781 " fill-opacity="1" fill-rule="nonzero"/><path fill="rgb(100%, 45.878601%, 59.21936%)" d="M 143.015625 80.199219 L 161.71875 111.835938 L 130.082031 130.535156 L 143.015625 80.199219 " fill-opacity="1" fill-rule="nonzero"/><path fill="rgb(100%, 45.878601%, 59.21936%)" d="M 136.398438 59.351562 L 136.398438 59.402344 L 92.941406 101.351562 L 136.429688 101.351562 L 179.9375 59.351562 L 136.398438 59.351562 " fill-opacity="1" fill-rule="nonzero"/><path fill="rgb(100%, 45.878601%, 59.21936%)" d="M 136.019531 61.699219 C 135.972656 61.742188 135.925781 61.765625 135.867188 61.8125 L 127.984375 68.574219 C 125.929688 70.339844 125.617188 73.386719 127.296875 75.351562 L 146.398438 97.617188 C 148.082031 99.582031 151.152344 99.746094 153.207031 97.980469 L 161.089844 91.222656 C 163.144531 89.457031 163.457031 86.40625 161.773438 84.445312 L 142.675781 62.179688 C 141.933594 61.3125 140.921875 60.800781 139.863281 60.644531 C 139.546875 59.179688 138.574219 55.867188 134.71875 54.570312 C 134.710938 54.5625 136.769531 56.941406 136.019531 61.699219 " fill-opacity="1" fill-rule="nonzero"/><path fill="rgb(100%, 45.878601%, 59.21936%)" d="M 136.523438 60.210938 L 180.023438 60.210938 L 180.023438 77.460938 L 136.523438 77.460938 L 136.523438 60.210938 " fill-opacity="1" fill-rule="nonzero"/><path fill="rgb(100%, 45.878601%, 59.21936%)" d="M 155.714844 65.871094 L 196.1875 65.871094 L 196.1875 80.121094 L 155.714844 80.121094 L 155.714844 65.871094 " fill-opacity="1" fill-rule="nonzero"/><path fill="rgb(100%, 45.878601%, 59.21936%)" d="M 180.902344 59.351562 L 172.515625 59.351562 L 166.582031 65.175781 L 166.582031 69.28125 L 172.515625 75.101562 L 180.902344 75.101562 L 186.832031 69.28125 L 186.832031 65.175781 L 180.902344 59.351562 " fill-opacity="1" fill-rule="nonzero"/><path fill="rgb(100%, 45.878601%, 59.21936%)" d="M 184.445312 67.097656 L 206.175781 55.25 L 212.996094 67.761719 L 191.265625 79.609375 L 184.445312 67.097656 " fill-opacity="1" fill-rule="nonzero"/><path fill="rgb(100%, 45.878601%, 59.21936%)" d="M 189.371094 80.335938 L 219.609375 105.203125 L 212.65625 66.675781 L 189.371094 80.335938 " fill-opacity="1" fill-rule="nonzero"/><path fill="rgb(100%, 45.878601%, 59.21936%)" d="M 89.898438 120.035156 L 118.539062 91.398438 L 147.171875 120.03125 L 89.898438 120.035156 " fill-opacity="1" fill-rule="nonzero"/><g fill="rgb(100%, 100%, 100%)" fill-opacity="1"><g transform="translate(0.166828, 197.018133)"><g><path d="M 35.203125 -8.765625 C 35.515625 -8.765625 35.789062 -8.632812 36.03125 -8.375 L 38.296875 -5.921875 C 36.566406 -3.910156 34.460938 -2.34375 31.984375 -1.21875 C 29.503906 -0.09375 26.507812 0.46875 23 0.46875 C 19.957031 0.46875 17.191406 -0.0546875 14.703125 -1.109375 C 12.222656 -2.160156 10.101562 -3.640625 8.34375 -5.546875 C 6.59375 -7.453125 5.234375 -9.738281 4.265625 -12.40625 C 3.296875 -15.070312 2.8125 -18 2.8125 -21.1875 C 2.8125 -24.382812 3.3125 -27.316406 4.3125 -29.984375 C 5.320312 -32.648438 6.738281 -34.9375 8.5625 -36.84375 C 10.394531 -38.757812 12.582031 -40.242188 15.125 -41.296875 C 17.664062 -42.359375 20.476562 -42.890625 23.5625 -42.890625 C 26.582031 -42.890625 29.242188 -42.40625 31.546875 -41.4375 C 33.859375 -40.46875 35.894531 -39.15625 37.65625 -37.5 L 35.765625 -34.875 C 35.640625 -34.675781 35.484375 -34.507812 35.296875 -34.375 C 35.109375 -34.25 34.859375 -34.1875 34.546875 -34.1875 C 34.191406 -34.1875 33.753906 -34.378906 33.234375 -34.765625 C 32.722656 -35.148438 32.050781 -35.578125 31.21875 -36.046875 C 30.394531 -36.523438 29.359375 -36.957031 28.109375 -37.34375 C 26.867188 -37.726562 25.34375 -37.921875 23.53125 -37.921875 C 21.34375 -37.921875 19.335938 -37.539062 17.515625 -36.78125 C 15.703125 -36.019531 14.140625 -34.914062 12.828125 -33.46875 C 11.515625 -32.03125 10.492188 -30.273438 9.765625 -28.203125 C 9.035156 -26.140625 8.671875 -23.800781 8.671875 -21.1875 C 8.671875 -18.550781 9.050781 -16.195312 9.8125 -14.125 C 10.570312 -12.050781 11.609375 -10.296875 12.921875 -8.859375 C 14.234375 -7.429688 15.78125 -6.34375 17.5625 -5.59375 C 19.351562 -4.84375 21.285156 -4.46875 23.359375 -4.46875 C 24.617188 -4.46875 25.753906 -4.539062 26.765625 -4.6875 C 27.785156 -4.832031 28.722656 -5.0625 29.578125 -5.375 C 30.441406 -5.695312 31.242188 -6.097656 31.984375 -6.578125 C 32.722656 -7.066406 33.457031 -7.644531 34.1875 -8.3125 C 34.519531 -8.613281 34.859375 -8.765625 35.203125 -8.765625 Z M 35.203125 -8.765625 "/></g></g></g><g fill="rgb(100%, 100%, 100%)" fill-opacity="1"><g transform="translate(39.714527, 197.018133)"><g><path d="M 44.609375 -21.1875 C 44.609375 -18.007812 44.101562 -15.09375 43.09375 -12.4375 C 42.09375 -9.789062 40.671875 -7.507812 38.828125 -5.59375 C 36.992188 -3.675781 34.789062 -2.191406 32.21875 -1.140625 C 29.644531 -0.0859375 26.800781 0.4375 23.6875 0.4375 C 20.5625 0.4375 17.71875 -0.0859375 15.15625 -1.140625 C 12.59375 -2.191406 10.390625 -3.675781 8.546875 -5.59375 C 6.710938 -7.507812 5.289062 -9.789062 4.28125 -12.4375 C 3.28125 -15.09375 2.78125 -18.007812 2.78125 -21.1875 C 2.78125 -24.363281 3.28125 -27.28125 4.28125 -29.9375 C 5.289062 -32.59375 6.710938 -34.882812 8.546875 -36.8125 C 10.390625 -38.738281 12.59375 -40.234375 15.15625 -41.296875 C 17.71875 -42.359375 20.5625 -42.890625 23.6875 -42.890625 C 26.800781 -42.890625 29.644531 -42.359375 32.21875 -41.296875 C 34.789062 -40.234375 36.992188 -38.738281 38.828125 -36.8125 C 40.671875 -34.882812 42.09375 -32.59375 43.09375 -29.9375 C 44.101562 -27.28125 44.609375 -24.363281 44.609375 -21.1875 Z M 38.71875 -21.1875 C 38.71875 -23.800781 38.363281 -26.140625 37.65625 -28.203125 C 36.945312 -30.273438 35.941406 -32.023438 34.640625 -33.453125 C 33.335938 -34.890625 31.753906 -35.992188 29.890625 -36.765625 C 28.035156 -37.535156 25.96875 -37.921875 23.6875 -37.921875 C 21.414062 -37.921875 19.351562 -37.535156 17.5 -36.765625 C 15.644531 -35.992188 14.0625 -34.890625 12.75 -33.453125 C 11.4375 -32.023438 10.421875 -30.273438 9.703125 -28.203125 C 8.992188 -26.140625 8.640625 -23.800781 8.640625 -21.1875 C 8.640625 -18.582031 8.992188 -16.25 9.703125 -14.1875 C 10.421875 -12.125 11.4375 -10.378906 12.75 -8.953125 C 14.0625 -7.523438 15.644531 -6.429688 17.5 -5.671875 C 19.351562 -4.910156 21.414062 -4.53125 23.6875 -4.53125 C 25.96875 -4.53125 28.035156 -4.910156 29.890625 -5.671875 C 31.753906 -6.429688 33.335938 -7.523438 34.640625 -8.953125 C 35.941406 -10.378906 36.945312 -12.125 37.65625 -14.1875 C 38.363281 -16.25 38.71875 -18.582031 38.71875 -21.1875 Z M 38.71875 -21.1875 "/></g></g></g><g fill="rgb(100%, 100%, 100%)" fill-opacity="1"><g transform="translate(87.106649, 197.018133)"><g><path d="M 17.171875 -21.875 C 18.828125 -21.875 20.289062 -22.078125 21.5625 -22.484375 C 22.832031 -22.890625 23.894531 -23.460938 24.75 -24.203125 C 25.613281 -24.941406 26.265625 -25.820312 26.703125 -26.84375 C 27.140625 -27.875 27.359375 -29.007812 27.359375 -30.25 C 27.359375 -32.78125 26.523438 -34.6875 24.859375 -35.96875 C 23.203125 -37.25 20.71875 -37.890625 17.40625 -37.890625 L 11.125 -37.890625 L 11.125 -21.875 Z M 36.765625 0 L 31.671875 0 C 30.628906 0 29.859375 -0.40625 29.359375 -1.21875 L 18.359375 -16.375 C 18.015625 -16.84375 17.648438 -17.179688 17.265625 -17.390625 C 16.878906 -17.597656 16.285156 -17.703125 15.484375 -17.703125 L 11.125 -17.703125 L 11.125 0 L 5.421875 0 L 5.421875 -42.421875 L 17.40625 -42.421875 C 20.09375 -42.421875 22.410156 -42.148438 24.359375 -41.609375 C 26.316406 -41.066406 27.929688 -40.28125 29.203125 -39.25 C 30.472656 -38.226562 31.414062 -36.988281 32.03125 -35.53125 C 32.644531 -34.082031 32.953125 -32.460938 32.953125 -30.671875 C 32.953125 -29.171875 32.710938 -27.769531 32.234375 -26.46875 C 31.765625 -25.164062 31.078125 -23.992188 30.171875 -22.953125 C 29.273438 -21.921875 28.179688 -21.039062 26.890625 -20.3125 C 25.597656 -19.582031 24.132812 -19.03125 22.5 -18.65625 C 23.226562 -18.238281 23.859375 -17.632812 24.390625 -16.84375 Z M 36.765625 0 "/></g></g></g><g fill="rgb(100%, 100%, 100%)" fill-opacity="1"><g transform="translate(124.197417, 197.018133)"><g><path d="M 39.90625 -42.421875 L 22.609375 0 L 17.46875 0 L 0.171875 -42.421875 L 4.765625 -42.421875 C 5.273438 -42.421875 5.6875 -42.289062 6 -42.03125 C 6.320312 -41.78125 6.5625 -41.457031 6.71875 -41.0625 L 18.671875 -11.125 C 18.929688 -10.457031 19.179688 -9.726562 19.421875 -8.9375 C 19.671875 -8.144531 19.894531 -7.316406 20.09375 -6.453125 C 20.289062 -7.316406 20.5 -8.144531 20.71875 -8.9375 C 20.9375 -9.726562 21.175781 -10.457031 21.4375 -11.125 L 33.359375 -41.0625 C 33.472656 -41.394531 33.703125 -41.703125 34.046875 -41.984375 C 34.398438 -42.273438 34.820312 -42.421875 35.3125 -42.421875 Z M 39.90625 -42.421875 "/></g></g></g><g fill="rgb(100%, 100%, 100%)" fill-opacity="1"><g transform="translate(164.277942, 197.018133)"><g><path d="M 11.15625 0 L 5.421875 0 L 5.421875 -42.421875 L 11.15625 -42.421875 Z M 11.15625 0 "/></g></g></g><g fill="rgb(100%, 100%, 100%)" fill-opacity="1"><g transform="translate(180.854823, 197.018133)"><g><path d="M 42.1875 -21.1875 C 42.1875 -18.007812 41.679688 -15.117188 40.671875 -12.515625 C 39.660156 -9.910156 38.238281 -7.679688 36.40625 -5.828125 C 34.570312 -3.972656 32.367188 -2.535156 29.796875 -1.515625 C 27.222656 -0.503906 24.375 0 21.25 0 L 5.421875 0 L 5.421875 -42.421875 L 21.25 -42.421875 C 24.375 -42.421875 27.222656 -41.910156 29.796875 -40.890625 C 32.367188 -39.878906 34.570312 -38.441406 36.40625 -36.578125 C 38.238281 -34.710938 39.660156 -32.472656 40.671875 -29.859375 C 41.679688 -27.253906 42.1875 -24.363281 42.1875 -21.1875 Z M 36.296875 -21.1875 C 36.296875 -23.800781 35.9375 -26.132812 35.21875 -28.1875 C 34.507812 -30.238281 33.503906 -31.972656 32.203125 -33.390625 C 30.898438 -34.804688 29.320312 -35.890625 27.46875 -36.640625 C 25.613281 -37.390625 23.539062 -37.765625 21.25 -37.765625 L 11.15625 -37.765625 L 11.15625 -4.640625 L 21.25 -4.640625 C 23.539062 -4.640625 25.613281 -5.015625 27.46875 -5.765625 C 29.320312 -6.515625 30.898438 -7.59375 32.203125 -9 C 33.503906 -10.414062 34.507812 -12.148438 35.21875 -14.203125 C 35.9375 -16.253906 36.296875 -18.582031 36.296875 -21.1875 Z M 36.296875 -21.1875 "/></g></g></g><g fill="rgb(100%, 100%, 100%)" fill-opacity="1"><g transform="translate(225.878818, 197.018133)"><g><path d="M 27.9375 -15.75 L 21.28125 -33 C 21.082031 -33.519531 20.875 -34.117188 20.65625 -34.796875 C 20.445312 -35.472656 20.242188 -36.195312 20.046875 -36.96875 C 19.628906 -35.375 19.203125 -34.039062 18.765625 -32.96875 L 12.109375 -15.75 Z M 39.90625 0 L 35.46875 0 C 34.945312 0 34.53125 -0.125 34.21875 -0.375 C 33.90625 -0.632812 33.671875 -0.960938 33.515625 -1.359375 L 29.546875 -11.609375 L 10.515625 -11.609375 L 6.546875 -1.359375 C 6.421875 -1.003906 6.191406 -0.6875 5.859375 -0.40625 C 5.523438 -0.132812 5.113281 0 4.625 0 L 0.171875 0 L 17.140625 -42.421875 L 22.9375 -42.421875 Z M 39.90625 0 "/></g></g></g><g fill="rgb(100%, 100%, 100%)" fill-opacity="1"><g transform="translate(265.959344, 197.018133)"><g><path d="M 31.578125 -4.671875 L 31.5625 0 L 5.421875 0 L 5.421875 -42.421875 L 31.5625 -42.421875 L 31.5625 -37.734375 L 11.15625 -37.734375 L 11.15625 -23.65625 L 27.671875 -23.65625 L 27.671875 -19.15625 L 11.15625 -19.15625 L 11.15625 -4.671875 Z M 31.578125 -4.671875 "/></g></g></g><g fill="rgb(100%, 100%, 100%)" fill-opacity="1"><g transform="translate(300.149161, 197.018133)"><g><path d="M 34.09375 -37.59375 L 20.359375 -37.59375 L 20.359375 0 L 14.65625 0 L 14.65625 -37.59375 L 0.890625 -37.59375 L 0.890625 -42.421875 L 34.09375 -42.421875 Z M 34.09375 -37.59375 "/></g></g></g><g fill="rgb(100%, 100%, 100%)" fill-opacity="1"><g transform="translate(335.108616, 197.018133)"><g><path d="M 27.9375 -15.75 L 21.28125 -33 C 21.082031 -33.519531 20.875 -34.117188 20.65625 -34.796875 C 20.445312 -35.472656 20.242188 -36.195312 20.046875 -36.96875 C 19.628906 -35.375 19.203125 -34.039062 18.765625 -32.96875 L 12.109375 -15.75 Z M 39.90625 0 L 35.46875 0 C 34.945312 0 34.53125 -0.125 34.21875 -0.375 C 33.90625 -0.632812 33.671875 -0.960938 33.515625 -1.359375 L 29.546875 -11.609375 L 10.515625 -11.609375 L 6.546875 -1.359375 C 6.421875 -1.003906 6.191406 -0.6875 5.859375 -0.40625 C 5.523438 -0.132812 5.113281 0 4.625 0 L 0.171875 0 L 17.140625 -42.421875 L 22.9375 -42.421875 Z M 39.90625 0 "/></g></g></g></svg>